999
"DXF R12 Output" (www.mydxf.blogspot.com)
 0 
SECTION
 2 
HEADER
 9 
$ACADVER
 1 
AC1009
 9 
$EXTMIN
 10 
 0 
 20 
 0 
 9 
$EXTMAX
 10 
 8.5 
 20 
 11 
 0 
ENDSEC
 0 
SECTION
 2 
ENTITIES
0
LINE
8
Layer 1
10
112.820000
20
150.751000
11
75.179000
21
122.473000
0
LINE
8
Layer 1
10
75.179000
20
122.473000
11
74.620894
21
121.790870
0
LINE
8
Layer 1
10
74.620894
20
121.790870
11
52.916700
21
121.791000
0
LINE
8
Layer 1
10
52.916700
20
121.791000
11
52.916700
21
89.855200
0
LINE
8
Layer 1
10
52.916700
20
89.855200
11
74.620900
21
89.855200
0
LINE
8
Layer 1
10
74.620900
20
89.855200
11
75.179006
21
89.173070
0
LINE
8
Layer 1
10
75.179006
20
89.173070
11
112.820206
21
60.916370
0
LINE
8
Layer 1
10
112.820206
20
60.916370
11
113.402939
21
60.596865
0
LINE
8
Layer 1
10
113.402939
20
60.596865
11
114.013287
21
60.464848
0
LINE
8
Layer 1
10
114.013287
20
60.464848
11
114.618791
21
60.504332
0
LINE
8
Layer 1
10
114.618791
20
60.504332
11
115.186991
21
60.699329
0
LINE
8
Layer 1
10
115.186991
20
60.699329
11
115.685428
21
61.033853
0
LINE
8
Layer 1
10
115.685428
20
61.033853
11
116.081643
21
61.491916
0
LINE
8
Layer 1
10
116.081643
20
61.491916
11
116.343175
21
62.057531
0
LINE
8
Layer 1
10
116.343175
20
62.057531
11
116.437566
21
62.714710
0
LINE
8
Layer 1
10
116.437566
20
62.714710
11
116.437000
21
148.932000
0
LINE
8
Layer 1
10
116.437000
20
148.932000
11
116.342610
21
149.590067
0
LINE
8
Layer 1
10
116.342610
20
149.590067
11
116.081078
21
150.158024
0
LINE
8
Layer 1
10
116.081078
20
150.158024
11
115.684865
21
150.619399
0
LINE
8
Layer 1
10
115.684865
20
150.619399
11
115.186429
21
150.957719
0
LINE
8
Layer 1
10
115.186429
20
150.957719
11
114.618229
21
151.156512
0
LINE
8
Layer 1
10
114.618229
20
151.156512
11
114.012725
21
151.199307
0
LINE
8
Layer 1
10
114.012725
20
151.199307
11
113.402375
21
151.069630
0
LINE
8
Layer 1
10
113.402375
20
151.069630
11
112.819640
21
150.751010
0
LINE
8
Layer 1
10
112.819640
20
150.751010
11
112.820000
21
150.751000
0
LINE
8
Layer 1
10
138.080000
20
68.688500
11
136.735121
21
68.860324
0
LINE
8
Layer 1
10
136.735121
20
68.860324
11
135.475508
21
69.365463
0
LINE
8
Layer 1
10
135.475508
20
69.365463
11
134.370923
21
70.188412
0
LINE
8
Layer 1
10
134.370923
20
70.188412
11
133.491130
21
71.313670
0
LINE
8
Layer 1
10
133.491130
20
71.313670
11
133.048045
21
72.288377
0
LINE
8
Layer 1
10
133.048045
20
72.288377
11
132.814492
21
73.301599
0
LINE
8
Layer 1
10
132.814492
20
73.301599
11
132.782961
21
74.324027
0
LINE
8
Layer 1
10
132.782961
20
74.324027
11
132.945944
21
75.326350
0
LINE
8
Layer 1
10
132.945944
20
75.326350
11
133.295932
21
76.279257
0
LINE
8
Layer 1
10
133.295932
20
76.279257
11
133.825415
21
77.153438
0
LINE
8
Layer 1
10
133.825415
20
77.153438
11
134.526884
21
77.919583
0
LINE
8
Layer 1
10
134.526884
20
77.919583
11
135.392830
21
78.548380
0
LINE
8
Layer 1
10
135.392830
20
78.548380
11
136.083278
21
79.010319
0
LINE
8
Layer 1
10
136.083278
20
79.010319
11
137.594901
21
80.213009
0
LINE
8
Layer 1
10
137.594901
20
80.213009
11
139.646222
21
82.207319
0
LINE
8
Layer 1
10
139.646222
20
82.207319
11
141.955765
21
85.044117
0
LINE
8
Layer 1
10
141.955765
20
85.044117
11
143.119409
21
86.794346
0
LINE
8
Layer 1
10
143.119409
20
86.794346
11
144.242054
21
88.774273
0
LINE
8
Layer 1
10
144.242054
20
88.774273
11
145.288517
21
90.990257
0
LINE
8
Layer 1
10
145.288517
20
90.990257
11
146.223612
21
93.448656
0
LINE
8
Layer 1
10
146.223612
20
93.448656
11
147.012156
21
96.155829
0
LINE
8
Layer 1
10
147.012156
20
96.155829
11
147.618963
21
99.118135
0
LINE
8
Layer 1
10
147.618963
20
99.118135
11
148.008849
21
102.341933
0
LINE
8
Layer 1
10
148.008849
20
102.341933
11
148.146630
21
105.833580
0
LINE
8
Layer 1
10
148.146630
20
105.833580
11
148.004762
21
109.375191
0
LINE
8
Layer 1
10
148.004762
20
109.375191
11
147.603705
21
112.640594
0
LINE
8
Layer 1
10
147.603705
20
112.640594
11
146.980278
21
115.636511
0
LINE
8
Layer 1
10
146.980278
20
115.636511
11
146.171300
21
118.369664
0
LINE
8
Layer 1
10
146.171300
20
118.369664
11
145.213591
21
120.846776
0
LINE
8
Layer 1
10
145.213591
20
120.846776
11
144.143970
21
123.074567
0
LINE
8
Layer 1
10
144.143970
20
123.074567
11
142.999255
21
125.059761
0
LINE
8
Layer 1
10
142.999255
20
125.059761
11
141.816268
21
126.809080
0
LINE
8
Layer 1
10
141.816268
20
126.809080
11
139.482748
21
129.626980
0
LINE
8
Layer 1
10
139.482748
20
129.626980
11
137.437966
21
131.582046
0
LINE
8
Layer 1
10
137.437966
20
131.582046
11
135.392830
21
133.118780
0
LINE
8
Layer 1
10
135.392830
20
133.118780
11
134.526886
21
133.747577
0
LINE
8
Layer 1
10
134.526886
20
133.747577
11
133.825418
21
134.513722
0
LINE
8
Layer 1
10
133.825418
20
134.513722
11
133.295935
21
135.387903
0
LINE
8
Layer 1
10
133.295935
20
135.387903
11
132.945947
21
136.340810
0
LINE
8
Layer 1
10
132.945947
20
136.340810
11
132.782964
21
137.343133
0
LINE
8
Layer 1
10
132.782964
20
137.343133
11
132.814493
21
138.365561
0
LINE
8
Layer 1
10
132.814493
20
138.365561
11
133.048045
21
139.378783
0
LINE
8
Layer 1
10
133.048045
20
139.378783
11
133.491130
21
140.353490
0
LINE
8
Layer 1
10
133.491130
20
140.353490
11
134.119927
21
141.219434
0
LINE
8
Layer 1
10
134.119927
20
141.219434
11
134.886072
21
141.920902
0
LINE
8
Layer 1
10
134.886072
20
141.920902
11
135.760253
21
142.450385
0
LINE
8
Layer 1
10
135.760253
20
142.450385
11
136.713160
21
142.800373
0
LINE
8
Layer 1
10
136.713160
20
142.800373
11
137.715483
21
142.963356
0
LINE
8
Layer 1
10
137.715483
20
142.963356
11
138.737911
21
142.931827
0
LINE
8
Layer 1
10
138.737911
20
142.931827
11
139.751133
21
142.698275
0
LINE
8
Layer 1
10
139.751133
20
142.698275
11
140.725840
21
142.255190
0
LINE
8
Layer 1
10
140.725840
20
142.255190
11
141.719928
21
141.622797
0
LINE
8
Layer 1
10
141.719928
20
141.622797
11
143.864870
21
139.994337
0
LINE
8
Layer 1
10
143.864870
20
139.994337
11
146.765098
21
137.307799
0
LINE
8
Layer 1
10
146.765098
20
137.307799
11
148.374830
21
135.548372
0
LINE
8
Layer 1
10
148.374830
20
135.548372
11
150.025045
21
133.501173
0
LINE
8
Layer 1
10
150.025045
20
133.501173
11
151.666297
21
131.158449
0
LINE
8
Layer 1
10
151.666297
20
131.158449
11
153.249140
21
128.512450
0
LINE
8
Layer 1
10
153.249140
20
128.512450
11
154.724129
21
125.555423
0
LINE
8
Layer 1
10
154.724129
20
125.555423
11
156.041817
21
122.279618
0
LINE
8
Layer 1
10
156.041817
20
122.279618
11
157.152758
21
118.677284
0
LINE
8
Layer 1
10
157.152758
20
118.677284
11
158.007506
21
114.740668
0
LINE
8
Layer 1
10
158.007506
20
114.740668
11
158.556616
21
110.462021
0
LINE
8
Layer 1
10
158.556616
20
110.462021
11
158.750640
21
105.833590
0
LINE
8
Layer 1
10
158.750640
20
105.833590
11
158.556620
21
101.205159
0
LINE
8
Layer 1
10
158.556620
20
101.205159
11
158.007546
21
96.926511
0
LINE
8
Layer 1
10
158.007546
20
96.926511
11
157.152893
21
92.989895
0
LINE
8
Layer 1
10
157.152893
20
92.989895
11
156.042138
21
89.387560
0
LINE
8
Layer 1
10
156.042138
20
89.387560
11
154.724758
21
86.111755
0
LINE
8
Layer 1
10
154.724758
20
86.111755
11
153.250228
21
83.154727
0
LINE
8
Layer 1
10
153.250228
20
83.154727
11
151.668026
21
80.508727
0
LINE
8
Layer 1
10
151.668026
20
80.508727
11
150.027627
21
78.166003
0
LINE
8
Layer 1
10
150.027627
20
78.166003
11
148.378509
21
76.118803
0
LINE
8
Layer 1
10
148.378509
20
76.118803
11
146.770147
21
74.359376
0
LINE
8
Layer 1
10
146.770147
20
74.359376
11
143.873598
21
71.672838
0
LINE
8
Layer 1
10
143.873598
20
71.672838
11
141.733792
21
70.044380
0
LINE
8
Layer 1
10
141.733792
20
70.044380
11
140.746540
21
69.411990
0
LINE
8
Layer 1
10
140.746540
20
69.411990
11
139.436541
21
68.864219
0
LINE
8
Layer 1
10
139.436541
20
68.864219
11
138.080030
21
68.688519
0
LINE
8
Layer 1
10
138.080030
20
68.688519
11
138.080000
21
68.688500
0
LINE
8
Layer 1
10
126.752000
20
83.261200
11
125.407444
21
83.433024
0
LINE
8
Layer 1
10
125.407444
20
83.433024
11
124.150091
21
83.938163
0
LINE
8
Layer 1
10
124.150091
20
83.938163
11
123.051643
21
84.761112
0
LINE
8
Layer 1
10
123.051643
20
84.761112
11
122.183800
21
85.886370
0
LINE
8
Layer 1
10
122.183800
20
85.886370
11
121.740715
21
86.861077
0
LINE
8
Layer 1
10
121.740715
20
86.861077
11
121.507162
21
87.874299
0
LINE
8
Layer 1
10
121.507162
20
87.874299
11
121.475631
21
88.896727
0
LINE
8
Layer 1
10
121.475631
20
88.896727
11
121.638614
21
89.899050
0
LINE
8
Layer 1
10
121.638614
20
89.899050
11
121.988602
21
90.851957
0
LINE
8
Layer 1
10
121.988602
20
90.851957
11
122.518085
21
91.726138
0
LINE
8
Layer 1
10
122.518085
20
91.726138
11
123.219554
21
92.492283
0
LINE
8
Layer 1
10
123.219554
20
92.492283
11
124.085500
21
93.121080
0
LINE
8
Layer 1
10
124.085500
20
93.121080
11
124.941069
21
93.799012
0
LINE
8
Layer 1
10
124.941069
20
93.799012
11
125.758003
21
94.630075
0
LINE
8
Layer 1
10
125.758003
20
94.630075
11
126.682245
21
95.816011
0
LINE
8
Layer 1
10
126.682245
20
95.816011
11
127.599705
21
97.376924
0
LINE
8
Layer 1
10
127.599705
20
97.376924
11
128.396291
21
99.332920
0
LINE
8
Layer 1
10
128.396291
20
99.332920
11
128.957910
21
101.704103
0
LINE
8
Layer 1
10
128.957910
20
101.704103
11
129.170470
21
104.510580
0
LINE
8
Layer 1
10
129.170470
20
104.510580
11
128.957749
21
107.317177
0
LINE
8
Layer 1
10
128.957749
20
107.317177
11
128.395000
21
109.689207
0
LINE
8
Layer 1
10
128.395000
20
109.689207
11
127.595347
21
111.647501
0
LINE
8
Layer 1
10
127.595347
20
111.647501
11
126.671912
21
113.212893
0
LINE
8
Layer 1
10
126.671912
20
113.212893
11
125.737820
21
114.406214
0
LINE
8
Layer 1
10
125.737820
20
114.406214
11
124.906191
21
115.248297
0
LINE
8
Layer 1
10
124.906191
20
115.248297
11
124.002820
21
115.962080
0
LINE
8
Layer 1
10
124.002820
20
115.962080
11
123.166024
21
116.611224
0
LINE
8
Layer 1
10
123.166024
20
116.611224
11
122.490314
21
117.391903
0
LINE
8
Layer 1
10
122.490314
20
117.391903
11
121.983683
21
118.274804
0
LINE
8
Layer 1
10
121.983683
20
118.274804
11
121.654125
21
119.230617
0
LINE
8
Layer 1
10
121.654125
20
119.230617
11
121.509633
21
120.230034
0
LINE
8
Layer 1
10
121.509633
20
120.230034
11
121.558201
21
121.243741
0
LINE
8
Layer 1
10
121.558201
20
121.243741
11
121.807822
21
122.242430
0
LINE
8
Layer 1
10
121.807822
20
122.242430
11
122.266490
21
123.196790
0
LINE
8
Layer 1
10
122.266490
20
123.196790
11
122.898517
21
124.048241
0
LINE
8
Layer 1
10
122.898517
20
124.048241
11
123.660140
21
124.737395
0
LINE
8
Layer 1
10
123.660140
20
124.737395
11
124.523986
21
125.256987
0
LINE
8
Layer 1
10
124.523986
20
125.256987
11
125.462682
21
125.599747
0
LINE
8
Layer 1
10
125.462682
20
125.599747
11
126.448857
21
125.758411
0
LINE
8
Layer 1
10
126.448857
20
125.758411
11
127.455136
21
125.725708
0
LINE
8
Layer 1
10
127.455136
20
125.725708
11
128.454148
21
125.494374
0
LINE
8
Layer 1
10
128.454148
20
125.494374
11
129.418520
21
125.057140
0
LINE
8
Layer 1
10
129.418520
20
125.057140
11
131.207819
21
123.762320
0
LINE
8
Layer 1
10
131.207819
20
123.762320
11
132.870349
21
122.234996
0
LINE
8
Layer 1
10
132.870349
20
122.234996
11
134.741199
21
120.078106
0
LINE
8
Layer 1
10
134.741199
20
120.078106
11
136.592672
21
117.259433
0
LINE
8
Layer 1
10
136.592672
20
117.259433
11
137.439985
21
115.591859
0
LINE
8
Layer 1
10
137.439985
20
115.591859
11
138.197065
21
113.746759
0
LINE
8
Layer 1
10
138.197065
20
113.746759
11
138.835452
21
111.720104
0
LINE
8
Layer 1
10
138.835452
20
111.720104
11
139.326681
21
109.507867
0
LINE
8
Layer 1
10
139.326681
20
109.507867
11
139.642292
21
107.106022
0
LINE
8
Layer 1
10
139.642292
20
107.106022
11
139.753820
21
104.510540
0
LINE
8
Layer 1
10
139.753820
20
104.510540
11
139.642292
21
101.915059
0
LINE
8
Layer 1
10
139.642292
20
101.915059
11
139.326681
21
99.513215
0
LINE
8
Layer 1
10
139.326681
20
99.513215
11
138.835452
21
97.300981
0
LINE
8
Layer 1
10
138.835452
20
97.300981
11
138.197065
21
95.274329
0
LINE
8
Layer 1
10
138.197065
20
95.274329
11
137.439984
21
93.429231
0
LINE
8
Layer 1
10
137.439984
20
93.429231
11
136.592671
21
91.761661
0
LINE
8
Layer 1
10
136.592671
20
91.761661
11
134.741199
21
88.942994
0
LINE
8
Layer 1
10
134.741199
20
88.942994
11
132.870348
21
86.786107
0
LINE
8
Layer 1
10
132.870348
20
86.786107
11
131.207818
21
85.258782
0
LINE
8
Layer 1
10
131.207818
20
85.258782
11
129.418520
21
83.963940
0
LINE
8
Layer 1
10
129.418520
20
83.963940
11
128.108521
21
83.434256
0
LINE
8
Layer 1
10
128.108521
20
83.434256
11
126.752010
21
83.261140
0
LINE
8
Layer 1
10
126.752010
20
83.261140
11
126.752000
21
83.261200
 0 
ENDSEC
 0 
EOF