G04*
G04 #@! TF.GenerationSoftware,Altium Limited,Altium Designer,24.9.1 (31)*
G04*
G04 Layer_Color=16711935*
%FSLAX25Y25*%
%MOIN*%
G70*
G04*
G04 #@! TF.SameCoordinates,DAC1C6B3-9DD7-490D-B82B-BCBA8ACD2817*
G04*
G04*
G04 #@! TF.FilePolarity,Negative*
G04*
G01*
G75*
%ADD18R,0.03600X0.03400*%
%ADD23C,0.04600*%
%ADD24C,0.06306*%
%ADD25R,0.06306X0.06306*%
%ADD26R,0.06300X0.06300*%
%ADD27C,0.06300*%
%ADD46R,0.05912X0.04731*%
%ADD47R,0.08100X0.05700*%
D18*
X21500Y46050D02*
D03*
Y39950D02*
D03*
X27500Y46050D02*
D03*
Y39950D02*
D03*
X33500Y46050D02*
D03*
Y39950D02*
D03*
X39500Y46050D02*
D03*
Y39950D02*
D03*
X45500Y46050D02*
D03*
Y39950D02*
D03*
X51500Y46050D02*
D03*
Y39950D02*
D03*
X57500Y46050D02*
D03*
Y39950D02*
D03*
X63500Y46050D02*
D03*
Y39950D02*
D03*
D23*
X11000Y50000D02*
D03*
Y55000D02*
D03*
Y60000D02*
D03*
Y65000D02*
D03*
Y70000D02*
D03*
Y75000D02*
D03*
Y80000D02*
D03*
Y85000D02*
D03*
Y90000D02*
D03*
Y95000D02*
D03*
Y100000D02*
D03*
Y105000D02*
D03*
Y110000D02*
D03*
Y115000D02*
D03*
Y120000D02*
D03*
Y125000D02*
D03*
Y130000D02*
D03*
Y135000D02*
D03*
Y140000D02*
D03*
Y145000D02*
D03*
D24*
X67000Y55000D02*
D03*
Y65000D02*
D03*
Y75000D02*
D03*
Y85000D02*
D03*
Y95000D02*
D03*
Y105000D02*
D03*
Y115000D02*
D03*
D25*
Y125000D02*
D03*
D26*
X13000Y24000D02*
D03*
D27*
X23000D02*
D03*
X33000D02*
D03*
X43000D02*
D03*
D46*
X69500Y40047D02*
D03*
Y45953D02*
D03*
D47*
X57100Y129000D02*
D03*
Y119000D02*
D03*
Y109000D02*
D03*
Y99000D02*
D03*
Y89000D02*
D03*
Y79000D02*
D03*
Y69000D02*
D03*
Y59000D02*
D03*
X20900D02*
D03*
Y69000D02*
D03*
Y79000D02*
D03*
Y89000D02*
D03*
Y99000D02*
D03*
Y109000D02*
D03*
Y119000D02*
D03*
Y129000D02*
D03*
M02*
