G04*
G04 #@! TF.GenerationSoftware,Altium Limited,Altium Designer,24.9.1 (31)*
G04*
G04 Layer_Color=128*
%FSLAX25Y25*%
%MOIN*%
G70*
G04*
G04 #@! TF.SameCoordinates,DAC1C6B3-9DD7-490D-B82B-BCBA8ACD2817*
G04*
G04*
G04 #@! TF.FilePolarity,Positive*
G04*
G01*
G75*
%ADD49C,0.00500*%
D49*
X9500Y50000D02*
X12500D01*
X11000Y48500D02*
Y51500D01*
X9500Y55000D02*
X12500D01*
X11000Y53500D02*
Y56500D01*
X9500Y60000D02*
X12500D01*
X11000Y58500D02*
Y61500D01*
X9500Y65000D02*
X12500D01*
X11000Y63500D02*
Y66500D01*
X9500Y70000D02*
X12500D01*
X11000Y68500D02*
Y71500D01*
X9500Y75000D02*
X12500D01*
X11000Y73500D02*
Y76500D01*
X9500Y80000D02*
X12500D01*
X11000Y78500D02*
Y81500D01*
X9500Y85000D02*
X12500D01*
X11000Y83500D02*
Y86500D01*
X9500Y90000D02*
X12500D01*
X11000Y88500D02*
Y91500D01*
X9500Y95000D02*
X12500D01*
X11000Y93500D02*
Y96500D01*
X9500Y100000D02*
X12500D01*
X11000Y98500D02*
Y101500D01*
X9500Y105000D02*
X12500D01*
X11000Y103500D02*
Y106500D01*
X9500Y110000D02*
X12500D01*
X11000Y108500D02*
Y111500D01*
X9500Y115000D02*
X12500D01*
X11000Y113500D02*
Y116500D01*
X9500Y120000D02*
X12500D01*
X11000Y118500D02*
Y121500D01*
X9500Y125000D02*
X12500D01*
X11000Y123500D02*
Y126500D01*
X9500Y130000D02*
X12500D01*
X11000Y128500D02*
Y131500D01*
X9500Y135000D02*
X12500D01*
X11000Y133500D02*
Y136500D01*
X9500Y140000D02*
X12500D01*
X11000Y138500D02*
Y141500D01*
X9500Y145000D02*
X12500D01*
X11000Y143500D02*
Y146500D01*
X65228Y55000D02*
X68772D01*
X67000Y53228D02*
Y56772D01*
X65228Y65000D02*
X68772D01*
X67000Y63228D02*
Y66772D01*
X65228Y75000D02*
X68772D01*
X67000Y73228D02*
Y76772D01*
X65228Y85000D02*
X68772D01*
X67000Y83228D02*
Y86772D01*
X65228Y95000D02*
X68772D01*
X67000Y93228D02*
Y96772D01*
X65228Y105000D02*
X68772D01*
X67000Y103228D02*
Y106772D01*
X65228Y115000D02*
X68772D01*
X67000Y113228D02*
Y116772D01*
X65228Y125000D02*
X68772D01*
X67000Y123228D02*
Y126772D01*
X11050Y24000D02*
X14950D01*
X13000Y22050D02*
Y25950D01*
X21050Y24000D02*
X24950D01*
X23000Y22050D02*
Y25950D01*
X31050Y24000D02*
X34950D01*
X33000Y22050D02*
Y25950D01*
X41050Y24000D02*
X44950D01*
X43000Y22050D02*
Y25950D01*
X29300Y85500D02*
X30700D01*
X30000Y84800D02*
Y86200D01*
X29300Y95000D02*
X30700D01*
X30000Y94300D02*
Y95700D01*
X10300Y43000D02*
X11700D01*
X11000Y42300D02*
Y43700D01*
X15300Y123000D02*
X16700D01*
X16000Y122300D02*
Y123700D01*
X13800Y62500D02*
X15200D01*
X14500Y61800D02*
Y63200D01*
M02*
