G04*
G04 #@! TF.GenerationSoftware,Altium Limited,Altium Designer,24.9.1 (31)*
G04*
G04 Layer_Physical_Order=2*
G04 Layer_Color=16711680*
%FSLAX25Y25*%
%MOIN*%
G70*
G04*
G04 #@! TF.SameCoordinates,DAC1C6B3-9DD7-490D-B82B-BCBA8ACD2817*
G04*
G04*
G04 #@! TF.FilePolarity,Positive*
G04*
G01*
G75*
%ADD11C,0.02000*%
%ADD31R,0.03200X0.03000*%
%ADD36C,0.04000*%
%ADD37C,0.01200*%
%ADD38C,0.04200*%
%ADD39C,0.05906*%
%ADD40R,0.05906X0.05906*%
%ADD41R,0.05900X0.05900*%
%ADD42C,0.05900*%
%ADD43C,0.02000*%
%ADD44R,0.05512X0.04331*%
%ADD45R,0.07700X0.05300*%
G36*
X54000Y152000D02*
X73000Y133000D01*
Y49118D01*
X66451D01*
X69263Y46306D01*
X68556Y45599D01*
X65724Y48431D01*
X65600Y48050D01*
X65244Y48050D01*
X64622D01*
Y49500D01*
X64536Y49929D01*
X64293Y50293D01*
X64293Y50293D01*
X61793Y52793D01*
X61429Y53036D01*
X61000Y53122D01*
X61000Y53122D01*
X54465D01*
X51122Y56465D01*
Y66535D01*
X52250Y67664D01*
X52750Y67457D01*
Y65850D01*
X61450D01*
Y72150D01*
X52750D01*
Y70122D01*
X52000D01*
X52000Y70122D01*
X51571Y70036D01*
X51207Y69793D01*
X51207Y69793D01*
X49207Y67793D01*
X48964Y67429D01*
X48878Y67000D01*
X48878Y67000D01*
Y56861D01*
X48417Y56670D01*
X47122Y57965D01*
Y85035D01*
X49965Y87878D01*
X52750D01*
Y85850D01*
X61450D01*
Y92150D01*
X52750D01*
Y90122D01*
X49500D01*
X49500Y90122D01*
X49071Y90036D01*
X48707Y89793D01*
X48707Y89793D01*
X45622Y86708D01*
X45122Y86915D01*
Y103035D01*
X49965Y107878D01*
X52750D01*
Y105850D01*
X61450D01*
Y112150D01*
X52750D01*
Y110122D01*
X49500D01*
X49071Y110036D01*
X48707Y109793D01*
X48707Y109793D01*
X43622Y104708D01*
X43122Y104915D01*
Y123035D01*
X47965Y127878D01*
X52750D01*
Y125850D01*
X61450D01*
Y132150D01*
X52750D01*
Y130122D01*
X47500D01*
X47071Y130036D01*
X46707Y129793D01*
X46707Y129793D01*
X41339Y124425D01*
X41121Y124311D01*
X40681Y124405D01*
X35293Y129793D01*
X34929Y130036D01*
X34500Y130122D01*
X34500Y130122D01*
X25250D01*
Y132150D01*
X25161D01*
X24983Y132617D01*
X25141Y133000D01*
Y135000D01*
X24983Y135383D01*
X24600Y135541D01*
X21400D01*
X21017Y135383D01*
X20859Y135000D01*
Y133000D01*
X21017Y132617D01*
X20839Y132150D01*
X16550D01*
Y130122D01*
X15500D01*
X15071Y130036D01*
X14707Y129793D01*
X14707Y129793D01*
X13961Y129047D01*
X13533Y129321D01*
X13622Y130000D01*
X13533Y130679D01*
X13271Y131311D01*
X12854Y131854D01*
X12382Y132217D01*
X12343Y132500D01*
X12382Y132783D01*
X12854Y133146D01*
X13271Y133689D01*
X13533Y134321D01*
X13622Y135000D01*
X13533Y135679D01*
X13271Y136311D01*
X12854Y136854D01*
X12382Y137217D01*
X12343Y137500D01*
X12382Y137783D01*
X12854Y138146D01*
X13271Y138689D01*
X13533Y139321D01*
X13622Y140000D01*
X13533Y140679D01*
X13271Y141311D01*
X12854Y141854D01*
X12382Y142217D01*
X12343Y142500D01*
X12382Y142783D01*
X12854Y143146D01*
X13271Y143689D01*
X13533Y144321D01*
X13622Y145000D01*
X13533Y145679D01*
X13271Y146311D01*
X12854Y146854D01*
X12311Y147271D01*
X11679Y147533D01*
X11000Y147622D01*
X10321Y147533D01*
X9689Y147271D01*
X9146Y146854D01*
X8729Y146311D01*
X8467Y145679D01*
X8378Y145000D01*
X8467Y144321D01*
X8729Y143689D01*
X9146Y143146D01*
X9618Y142783D01*
X9657Y142500D01*
X9618Y142217D01*
X9146Y141854D01*
X8729Y141311D01*
X8467Y140679D01*
X8378Y140000D01*
X8467Y139321D01*
X8729Y138689D01*
X9146Y138146D01*
X9618Y137783D01*
X9657Y137500D01*
X9618Y137217D01*
X9146Y136854D01*
X8729Y136311D01*
X8467Y135679D01*
X8378Y135000D01*
X8467Y134321D01*
X8729Y133689D01*
X9146Y133146D01*
X9618Y132783D01*
X9657Y132500D01*
X9618Y132217D01*
X9146Y131854D01*
X8729Y131311D01*
X8467Y130679D01*
X8378Y130000D01*
X8467Y129321D01*
X8729Y128689D01*
X9146Y128146D01*
X9618Y127783D01*
X9657Y127500D01*
X9618Y127217D01*
X9146Y126854D01*
X8729Y126311D01*
X8467Y125679D01*
X8378Y125000D01*
X8467Y124321D01*
X8729Y123689D01*
X9146Y123146D01*
X9618Y122783D01*
X9657Y122500D01*
X9618Y122217D01*
X9146Y121854D01*
X8729Y121311D01*
X8467Y120679D01*
X8378Y120000D01*
X8467Y119321D01*
X8729Y118689D01*
X9146Y118146D01*
X9618Y117783D01*
X9657Y117500D01*
X9618Y117217D01*
X9146Y116854D01*
X8729Y116311D01*
X8467Y115679D01*
X8378Y115000D01*
X8467Y114321D01*
X8729Y113689D01*
X9146Y113146D01*
X9618Y112783D01*
X9657Y112500D01*
X9618Y112217D01*
X9146Y111854D01*
X8729Y111311D01*
X8467Y110679D01*
X8378Y110000D01*
X8467Y109321D01*
X8729Y108689D01*
X9146Y108146D01*
X9618Y107783D01*
X9657Y107500D01*
X9618Y107217D01*
X9146Y106854D01*
X8729Y106311D01*
X8467Y105679D01*
X8378Y105000D01*
X8467Y104321D01*
X8729Y103689D01*
X9146Y103146D01*
X9618Y102783D01*
X9657Y102500D01*
X9618Y102217D01*
X9146Y101854D01*
X8729Y101311D01*
X8467Y100679D01*
X8378Y100000D01*
X8467Y99321D01*
X8729Y98689D01*
X9146Y98146D01*
X9618Y97783D01*
X9657Y97500D01*
X9618Y97217D01*
X9146Y96854D01*
X8729Y96311D01*
X8467Y95679D01*
X8378Y95000D01*
X8467Y94321D01*
X8729Y93689D01*
X9146Y93146D01*
X9618Y92783D01*
X9657Y92500D01*
X9618Y92217D01*
X9146Y91854D01*
X8729Y91311D01*
X8467Y90679D01*
X8378Y90000D01*
X8467Y89321D01*
X8729Y88689D01*
X9146Y88146D01*
X9618Y87783D01*
X9657Y87500D01*
X9618Y87217D01*
X9146Y86854D01*
X8729Y86311D01*
X8467Y85679D01*
X8378Y85000D01*
X8467Y84321D01*
X8729Y83689D01*
X9146Y83146D01*
X9618Y82783D01*
X9657Y82500D01*
X9618Y82217D01*
X9146Y81854D01*
X8729Y81311D01*
X8467Y80679D01*
X8378Y80000D01*
X8467Y79321D01*
X8729Y78689D01*
X9146Y78146D01*
X9618Y77783D01*
X9657Y77500D01*
X9618Y77217D01*
X9146Y76854D01*
X8729Y76311D01*
X8467Y75679D01*
X8378Y75000D01*
X8467Y74321D01*
X8729Y73689D01*
X9146Y73146D01*
X9618Y72783D01*
X9657Y72500D01*
X9618Y72217D01*
X9146Y71854D01*
X8729Y71311D01*
X8467Y70679D01*
X8378Y70000D01*
X8467Y69321D01*
X8729Y68689D01*
X9146Y68146D01*
X9618Y67783D01*
X9657Y67500D01*
X9618Y67217D01*
X9146Y66854D01*
X8729Y66311D01*
X8467Y65679D01*
X8378Y65000D01*
X8467Y64321D01*
X8729Y63689D01*
X9146Y63146D01*
X9618Y62783D01*
X9657Y62500D01*
X9618Y62217D01*
X9146Y61854D01*
X8729Y61311D01*
X8467Y60679D01*
X8378Y60000D01*
X8467Y59321D01*
X8729Y58689D01*
X9146Y58146D01*
X9618Y57783D01*
X9657Y57500D01*
X9618Y57217D01*
X9146Y56854D01*
X8729Y56311D01*
X8467Y55679D01*
X8378Y55000D01*
X8467Y54321D01*
X8729Y53689D01*
X9146Y53146D01*
X9618Y52783D01*
X9657Y52500D01*
X9618Y52217D01*
X9146Y51854D01*
X8729Y51311D01*
X8467Y50679D01*
X8378Y50000D01*
X8467Y49321D01*
X8729Y48689D01*
X9146Y48146D01*
X9689Y47729D01*
X10321Y47467D01*
X11000Y47378D01*
X11679Y47467D01*
X12311Y47729D01*
X12854Y48146D01*
X12971Y48297D01*
X13471Y48127D01*
Y47633D01*
X9919Y44081D01*
X9587Y43585D01*
X9471Y43000D01*
X9587Y42415D01*
X9919Y41919D01*
X10415Y41587D01*
X11000Y41471D01*
X11585Y41587D01*
X12081Y41919D01*
X16081Y45919D01*
X16413Y46415D01*
X16432Y46512D01*
X16529Y47000D01*
Y55358D01*
X16550Y55850D01*
X25250D01*
Y62150D01*
X16593D01*
X16413Y62585D01*
X16413Y62585D01*
X16413Y62585D01*
X16081Y63081D01*
X15581Y63581D01*
X15085Y63913D01*
X14500Y64029D01*
X13915Y63913D01*
X13902Y63904D01*
X13498Y64236D01*
X13533Y64321D01*
X13622Y65000D01*
X13533Y65679D01*
X13271Y66311D01*
X12854Y66854D01*
X12382Y67217D01*
X12343Y67500D01*
X12382Y67783D01*
X12854Y68146D01*
X13271Y68689D01*
X13350Y68878D01*
X14035D01*
X14707Y68207D01*
X14707Y68207D01*
X15071Y67964D01*
X15500Y67878D01*
X16550D01*
Y65850D01*
X25250D01*
Y67457D01*
X25750Y67664D01*
X27378Y66035D01*
Y55965D01*
X20707Y49293D01*
X20464Y48929D01*
X20378Y48500D01*
X20273Y48050D01*
X19400D01*
Y44100D01*
X19359Y44000D01*
Y42000D01*
X19400Y41901D01*
Y37950D01*
X19971D01*
Y33500D01*
X20087Y32915D01*
X20419Y32419D01*
X21471Y31367D01*
Y27101D01*
X21260Y27014D01*
X20539Y26461D01*
X19986Y25740D01*
X19639Y24901D01*
X19520Y24000D01*
X19639Y23099D01*
X19986Y22260D01*
X20539Y21539D01*
X21260Y20986D01*
X22099Y20639D01*
X23000Y20520D01*
X23901Y20639D01*
X24740Y20986D01*
X25461Y21539D01*
X26014Y22260D01*
X26361Y23099D01*
X26480Y24000D01*
X26361Y24901D01*
X26014Y25740D01*
X25461Y26461D01*
X24740Y27014D01*
X24529Y27101D01*
Y32000D01*
X24413Y32585D01*
X24081Y33081D01*
X23029Y34133D01*
Y37950D01*
X23600D01*
Y38421D01*
X25400D01*
Y37950D01*
X29600D01*
Y38421D01*
X31400D01*
Y37950D01*
X35600D01*
Y38421D01*
X37400D01*
Y37950D01*
X41600D01*
Y41901D01*
X41641Y42000D01*
Y44000D01*
X41600Y44100D01*
Y48050D01*
X41600D01*
X41212Y48550D01*
X41222Y48600D01*
X41222Y48600D01*
Y53539D01*
X41684Y53730D01*
X44378Y51035D01*
Y48050D01*
X43400D01*
Y44100D01*
X43359Y44000D01*
Y42000D01*
X43400Y41901D01*
Y37950D01*
X43971D01*
Y35133D01*
X41919Y33081D01*
X41587Y32585D01*
X41471Y32000D01*
Y27101D01*
X41260Y27014D01*
X40539Y26461D01*
X39986Y25740D01*
X39639Y24901D01*
X39520Y24000D01*
X39639Y23099D01*
X39986Y22260D01*
X40539Y21539D01*
X41260Y20986D01*
X42099Y20639D01*
X43000Y20520D01*
X43901Y20639D01*
X44740Y20986D01*
X45461Y21539D01*
X46014Y22260D01*
X46361Y23099D01*
X46480Y24000D01*
X46361Y24901D01*
X46014Y25740D01*
X45461Y26461D01*
X44740Y27014D01*
X44529Y27101D01*
Y31367D01*
X46581Y33419D01*
X46913Y33915D01*
X46932Y34012D01*
X47029Y34500D01*
Y37950D01*
X47600D01*
Y38421D01*
X49400D01*
Y37950D01*
X53600D01*
Y38421D01*
X55400D01*
Y37950D01*
X59600D01*
Y38421D01*
X61400D01*
Y37950D01*
X65600D01*
Y38421D01*
X66244D01*
Y37382D01*
X72500D01*
X72756Y37382D01*
X73000Y36983D01*
X73000Y36983D01*
Y20000D01*
X54000Y1000D01*
X1000D01*
Y151646D01*
X1354Y152000D01*
X54000Y152000D01*
D02*
G37*
%LPC*%
G36*
X70453Y128453D02*
X63547D01*
Y123133D01*
X61950Y121536D01*
X61450Y121743D01*
Y122150D01*
X52750D01*
Y115850D01*
X61450D01*
Y118878D01*
X62000D01*
X62000Y118878D01*
X62429Y118964D01*
X62793Y119207D01*
X65133Y121547D01*
X70453D01*
Y128453D01*
D02*
G37*
G36*
X67000Y118987D02*
X65968Y118851D01*
X65007Y118453D01*
X64581Y118126D01*
X67000Y115707D01*
X69419Y118126D01*
X68993Y118453D01*
X68032Y118851D01*
X67000Y118987D01*
D02*
G37*
G36*
X70126Y117419D02*
X67707Y115000D01*
X70126Y112581D01*
X70453Y113007D01*
X70851Y113968D01*
X70987Y115000D01*
X70851Y116032D01*
X70453Y116993D01*
X70126Y117419D01*
D02*
G37*
G36*
X63874D02*
X63547Y116993D01*
X63149Y116032D01*
X63013Y115000D01*
X63149Y113968D01*
X63547Y113007D01*
X63874Y112581D01*
X66293Y115000D01*
X63874Y117419D01*
D02*
G37*
G36*
X67000Y114293D02*
X64581Y111874D01*
X65007Y111547D01*
X65968Y111149D01*
X67000Y111013D01*
X68032Y111149D01*
X68993Y111547D01*
X69419Y111874D01*
X67000Y114293D01*
D02*
G37*
G36*
Y108483D02*
X66099Y108364D01*
X65259Y108016D01*
X64538Y107463D01*
X63984Y106741D01*
X63636Y105901D01*
X63517Y105000D01*
X63636Y104099D01*
X63984Y103259D01*
X64283Y102869D01*
X61950Y100536D01*
X61450Y100743D01*
Y102150D01*
X52750D01*
Y95850D01*
X61450D01*
Y97878D01*
X62000D01*
X62000Y97878D01*
X62429Y97964D01*
X62793Y98207D01*
X66208Y101622D01*
X67000Y101517D01*
X67901Y101636D01*
X68741Y101984D01*
X69463Y102538D01*
X70016Y103259D01*
X70364Y104099D01*
X70482Y105000D01*
X70364Y105901D01*
X70016Y106741D01*
X69463Y107463D01*
X68741Y108016D01*
X67901Y108364D01*
X67000Y108483D01*
D02*
G37*
G36*
Y98987D02*
X65968Y98851D01*
X65007Y98453D01*
X64581Y98126D01*
X67000Y95707D01*
X69419Y98126D01*
X68993Y98453D01*
X68032Y98851D01*
X67000Y98987D01*
D02*
G37*
G36*
X70126Y97419D02*
X67707Y95000D01*
X70126Y92581D01*
X70453Y93007D01*
X70851Y93968D01*
X70987Y95000D01*
X70851Y96032D01*
X70453Y96993D01*
X70126Y97419D01*
D02*
G37*
G36*
X63874D02*
X63547Y96993D01*
X63149Y96032D01*
X63013Y95000D01*
X63149Y93968D01*
X63547Y93007D01*
X63874Y92581D01*
X66293Y95000D01*
X63874Y97419D01*
D02*
G37*
G36*
X67000Y94293D02*
X64581Y91874D01*
X65007Y91547D01*
X65968Y91149D01*
X67000Y91013D01*
X68032Y91149D01*
X68993Y91547D01*
X69419Y91874D01*
X67000Y94293D01*
D02*
G37*
G36*
Y88482D02*
X66099Y88364D01*
X65259Y88016D01*
X64538Y87463D01*
X63984Y86741D01*
X63636Y85901D01*
X63517Y85000D01*
X63636Y84099D01*
X63984Y83259D01*
X64283Y82869D01*
X61950Y80536D01*
X61450Y80743D01*
Y82150D01*
X52750D01*
Y75850D01*
X61450D01*
Y77878D01*
X62000D01*
X62000Y77878D01*
X62429Y77964D01*
X62793Y78207D01*
X66208Y81622D01*
X67000Y81517D01*
X67901Y81636D01*
X68741Y81984D01*
X69463Y82538D01*
X70016Y83259D01*
X70364Y84099D01*
X70482Y85000D01*
X70364Y85901D01*
X70016Y86741D01*
X69463Y87463D01*
X68741Y88016D01*
X67901Y88364D01*
X67000Y88482D01*
D02*
G37*
G36*
Y78987D02*
X65968Y78851D01*
X65007Y78453D01*
X64581Y78126D01*
X67000Y75707D01*
X69419Y78126D01*
X68993Y78453D01*
X68032Y78851D01*
X67000Y78987D01*
D02*
G37*
G36*
X70126Y77419D02*
X67707Y75000D01*
X70126Y72581D01*
X70453Y73007D01*
X70851Y73968D01*
X70987Y75000D01*
X70851Y76032D01*
X70453Y76993D01*
X70126Y77419D01*
D02*
G37*
G36*
X63874D02*
X63547Y76993D01*
X63149Y76032D01*
X63013Y75000D01*
X63149Y73968D01*
X63547Y73007D01*
X63874Y72581D01*
X66293Y75000D01*
X63874Y77419D01*
D02*
G37*
G36*
X67000Y74293D02*
X64581Y71874D01*
X65007Y71547D01*
X65968Y71149D01*
X67000Y71013D01*
X68032Y71149D01*
X68993Y71547D01*
X69419Y71874D01*
X67000Y74293D01*
D02*
G37*
G36*
Y68483D02*
X66099Y68364D01*
X65259Y68016D01*
X64538Y67462D01*
X63984Y66741D01*
X63636Y65901D01*
X63517Y65000D01*
X63636Y64099D01*
X63984Y63259D01*
X64283Y62869D01*
X61950Y60536D01*
X61450Y60743D01*
Y62150D01*
X52750D01*
Y55850D01*
X61450D01*
Y57878D01*
X62000D01*
X62000Y57878D01*
X62429Y57964D01*
X62793Y58207D01*
X66208Y61622D01*
X67000Y61518D01*
X67901Y61636D01*
X68741Y61984D01*
X69463Y62537D01*
X70016Y63259D01*
X70364Y64099D01*
X70482Y65000D01*
X70364Y65901D01*
X70016Y66741D01*
X69463Y67462D01*
X68741Y68016D01*
X67901Y68364D01*
X67000Y68483D01*
D02*
G37*
G36*
Y58987D02*
X65968Y58851D01*
X65007Y58453D01*
X64581Y58126D01*
X67000Y55707D01*
X69419Y58126D01*
X68993Y58453D01*
X68032Y58851D01*
X67000Y58987D01*
D02*
G37*
G36*
X70126Y57419D02*
X67707Y55000D01*
X70126Y52581D01*
X70453Y53007D01*
X70851Y53968D01*
X70987Y55000D01*
X70851Y56032D01*
X70453Y56993D01*
X70126Y57419D01*
D02*
G37*
G36*
X63874D02*
X63547Y56993D01*
X63149Y56032D01*
X63013Y55000D01*
X63149Y53968D01*
X63547Y53007D01*
X63874Y52581D01*
X66293Y55000D01*
X63874Y57419D01*
D02*
G37*
G36*
X67000Y54293D02*
X64581Y51874D01*
X65007Y51547D01*
X65968Y51149D01*
X67000Y51013D01*
X68032Y51149D01*
X68993Y51547D01*
X69419Y51874D01*
X67000Y54293D01*
D02*
G37*
G36*
X33000Y27984D02*
X31969Y27848D01*
X31008Y27450D01*
X30583Y27124D01*
X33000Y24707D01*
X35417Y27124D01*
X34992Y27450D01*
X34031Y27848D01*
X33000Y27984D01*
D02*
G37*
G36*
X36124Y26417D02*
X33707Y24000D01*
X36124Y21583D01*
X36450Y22008D01*
X36848Y22969D01*
X36984Y24000D01*
X36848Y25031D01*
X36450Y25992D01*
X36124Y26417D01*
D02*
G37*
G36*
X29876D02*
X29550Y25992D01*
X29152Y25031D01*
X29016Y24000D01*
X29152Y22969D01*
X29550Y22008D01*
X29876Y21583D01*
X32293Y24000D01*
X29876Y26417D01*
D02*
G37*
G36*
X16450Y27450D02*
X9550D01*
Y20550D01*
X16450D01*
Y27450D01*
D02*
G37*
G36*
X33000Y23293D02*
X30583Y20876D01*
X31008Y20550D01*
X31969Y20152D01*
X33000Y20016D01*
X34031Y20152D01*
X34992Y20550D01*
X35417Y20876D01*
X33000Y23293D01*
D02*
G37*
%LPD*%
D11*
X45500Y34500D02*
Y39950D01*
X43000Y32000D02*
X45500Y34500D01*
X21500Y33500D02*
Y39950D01*
Y33500D02*
X23000Y32000D01*
X21500Y39950D02*
X27500D01*
X39500D01*
X43000Y24000D02*
Y32000D01*
X45500Y39950D02*
X57500D01*
X63500D01*
X68903D01*
X69000Y40047D01*
X11000Y43000D02*
X15000Y47000D01*
X14500Y62500D02*
X15000Y62000D01*
Y59000D02*
X20900D01*
X15000Y47000D02*
Y59000D01*
Y62000D01*
X23000Y24000D02*
Y32000D01*
D31*
X21500Y46050D02*
D03*
Y39950D02*
D03*
X27500Y46050D02*
D03*
Y39950D02*
D03*
X33500Y46050D02*
D03*
Y39950D02*
D03*
X39500Y46050D02*
D03*
Y39950D02*
D03*
X45500Y46050D02*
D03*
Y39950D02*
D03*
X51500Y46050D02*
D03*
Y39950D02*
D03*
X57500Y46050D02*
D03*
Y39950D02*
D03*
X63500Y46050D02*
D03*
Y39950D02*
D03*
D36*
X30000Y81000D02*
Y85500D01*
X28000Y79000D02*
X30000Y81000D01*
X20900Y79000D02*
X28000D01*
X30000Y95000D02*
Y96000D01*
X27000Y99000D02*
X30000Y96000D01*
X20900Y99000D02*
X27000D01*
X20150Y119500D02*
X20650Y119000D01*
X20150Y119500D02*
Y120200D01*
X17350Y123000D02*
X20150Y120200D01*
X16000Y123000D02*
X17350D01*
D37*
X15500Y129000D02*
X19200D01*
X11500Y125000D02*
X15500Y129000D01*
X11000Y125000D02*
X11500D01*
X36000Y57500D02*
Y85500D01*
X27500Y49000D02*
X36000Y57500D01*
X27500Y46550D02*
Y49000D01*
X33500Y51000D02*
X38000Y55500D01*
X33500Y46050D02*
Y51000D01*
X39500Y48000D02*
X40100Y48600D01*
X39500Y46050D02*
Y48000D01*
X40100Y48600D02*
Y123400D01*
X56500Y49500D02*
X57500Y48500D01*
X54000Y49500D02*
X56500D01*
X46000Y57500D02*
X54000Y49500D01*
X57500Y46550D02*
Y48500D01*
Y46550D02*
X58000Y46050D01*
X46000Y57500D02*
Y85500D01*
X54000Y52000D02*
X61000D01*
X50000Y56000D02*
X54000Y52000D01*
X50000Y56000D02*
Y67000D01*
X61000Y52000D02*
X63500Y49500D01*
Y46550D02*
Y49500D01*
Y46550D02*
X64000Y46050D01*
X44000Y56500D02*
X51500Y49000D01*
Y46550D02*
Y49000D01*
Y46550D02*
X52000Y46050D01*
X28500Y55500D02*
Y66500D01*
X21500Y48500D02*
X28500Y55500D01*
X21500Y46050D02*
Y48500D01*
Y46050D02*
X22073Y45477D01*
X50000Y67000D02*
X52000Y69000D01*
X15000Y90000D02*
X16000Y89000D01*
X20900D01*
X32500D02*
X36000Y85500D01*
X20900Y89000D02*
X32500D01*
X34500Y129000D02*
X40100Y123400D01*
X20900Y129000D02*
X34500D01*
X15500Y69000D02*
X20900D01*
X14500Y70000D02*
X15500Y69000D01*
X11000Y70000D02*
X14500D01*
X49500Y89000D02*
X57100D01*
X46000Y85500D02*
X49500Y89000D01*
Y109000D02*
X57100D01*
X44000Y103500D02*
X49500Y109000D01*
X32500D02*
X38000Y103500D01*
X20900Y109000D02*
X32500D01*
X62000Y120000D02*
X67000Y125000D01*
X58100Y120000D02*
X62000D01*
X67000Y104000D02*
Y105000D01*
X62000Y99000D02*
X67000Y104000D01*
X57100Y99000D02*
X62000D01*
X52000Y69000D02*
X57100D01*
X67000Y64000D02*
Y65000D01*
X62000Y59000D02*
X67000Y64000D01*
X57100Y59000D02*
X62000D01*
X67000Y84000D02*
Y85000D01*
X62000Y79000D02*
X67000Y84000D01*
X57100Y79000D02*
X62000D01*
X57100Y119000D02*
X58100Y120000D01*
X11000Y110000D02*
X15000D01*
X16000Y109000D01*
X20900D01*
X11000Y90000D02*
X15000D01*
X44000Y56500D02*
Y103500D01*
X27500Y46550D02*
X28500Y45550D01*
X21025Y46525D02*
X21975D01*
X22000Y46550D01*
X45500Y46050D02*
Y51500D01*
X19200Y129000D02*
Y129704D01*
X38000Y55500D02*
Y103500D01*
X42000Y55000D02*
X45500Y51500D01*
X55100Y129000D02*
X56100Y130000D01*
X42000Y55000D02*
Y123500D01*
X47500Y129000D01*
X55100D01*
X20900Y69000D02*
X26000D01*
X28500Y66500D01*
D38*
X11000Y50000D02*
D03*
Y55000D02*
D03*
Y60000D02*
D03*
Y65000D02*
D03*
Y70000D02*
D03*
Y75000D02*
D03*
Y80000D02*
D03*
Y85000D02*
D03*
Y90000D02*
D03*
Y95000D02*
D03*
Y100000D02*
D03*
Y105000D02*
D03*
Y110000D02*
D03*
Y115000D02*
D03*
Y120000D02*
D03*
Y125000D02*
D03*
Y130000D02*
D03*
Y135000D02*
D03*
Y140000D02*
D03*
Y145000D02*
D03*
D39*
X67000Y55000D02*
D03*
Y65000D02*
D03*
Y75000D02*
D03*
Y85000D02*
D03*
Y95000D02*
D03*
Y105000D02*
D03*
Y115000D02*
D03*
D40*
Y125000D02*
D03*
D41*
X13000Y24000D02*
D03*
D42*
X23000D02*
D03*
X33000D02*
D03*
X43000D02*
D03*
D43*
X30000Y85500D02*
D03*
Y95000D02*
D03*
X11000Y43000D02*
D03*
X16000Y123000D02*
D03*
X14500Y62500D02*
D03*
D44*
X69500Y40047D02*
D03*
Y45953D02*
D03*
D45*
X57100Y129000D02*
D03*
Y119000D02*
D03*
Y109000D02*
D03*
Y99000D02*
D03*
Y89000D02*
D03*
Y79000D02*
D03*
Y69000D02*
D03*
Y59000D02*
D03*
X20900D02*
D03*
Y69000D02*
D03*
Y79000D02*
D03*
Y89000D02*
D03*
Y99000D02*
D03*
Y109000D02*
D03*
Y119000D02*
D03*
Y129000D02*
D03*
M02*
