G04*
G04 #@! TF.GenerationSoftware,Altium Limited,Altium Designer,24.9.1 (31)*
G04*
G04 Layer_Color=255*
%FSLAX25Y25*%
%MOIN*%
G70*
G04*
G04 #@! TF.SameCoordinates,DAC1C6B3-9DD7-490D-B82B-BCBA8ACD2817*
G04*
G04*
G04 #@! TF.FilePolarity,Positive*
G04*
G01*
G75*
%ADD28R,0.04331X0.05512*%
%ADD29R,0.09100X0.09100*%
%ADD30R,0.06000X0.06000*%
%ADD31R,0.03200X0.03000*%
%ADD32R,0.03000X0.03200*%
%ADD33R,0.05200X0.02200*%
%ADD34R,0.03750X0.02200*%
%ADD35R,0.04375X0.02365*%
%ADD38C,0.04200*%
%ADD39C,0.05906*%
%ADD40R,0.05906X0.05906*%
%ADD41R,0.05900X0.05900*%
%ADD42C,0.05900*%
D28*
X35000Y64500D02*
D03*
X40905D02*
D03*
X35000Y57500D02*
D03*
X40905D02*
D03*
D29*
X24024Y77024D02*
D03*
X51976D02*
D03*
X24024Y104976D02*
D03*
X51976D02*
D03*
D30*
X67000Y29000D02*
D03*
D31*
X23000Y130950D02*
D03*
Y137050D02*
D03*
D32*
X41050Y51000D02*
D03*
X34950D02*
D03*
D33*
X40497Y134000D02*
D03*
X32503Y130260D02*
D03*
Y137740D02*
D03*
D34*
X28025Y65740D02*
D03*
Y62000D02*
D03*
Y58260D02*
D03*
X17975D02*
D03*
Y62000D02*
D03*
Y65740D02*
D03*
D35*
X24209Y119000D02*
D03*
X37791D02*
D03*
D38*
X11000Y50000D02*
D03*
Y55000D02*
D03*
Y60000D02*
D03*
Y65000D02*
D03*
Y70000D02*
D03*
Y75000D02*
D03*
Y80000D02*
D03*
Y85000D02*
D03*
Y90000D02*
D03*
Y95000D02*
D03*
Y100000D02*
D03*
Y105000D02*
D03*
Y110000D02*
D03*
Y115000D02*
D03*
Y120000D02*
D03*
Y125000D02*
D03*
Y130000D02*
D03*
Y135000D02*
D03*
Y140000D02*
D03*
Y145000D02*
D03*
D39*
X67000Y55000D02*
D03*
Y65000D02*
D03*
Y75000D02*
D03*
Y85000D02*
D03*
Y95000D02*
D03*
Y105000D02*
D03*
Y115000D02*
D03*
D40*
Y125000D02*
D03*
D41*
X13000Y24000D02*
D03*
D42*
X23000D02*
D03*
X33000D02*
D03*
X43000D02*
D03*
M02*
