G04*
G04 #@! TF.GenerationSoftware,Altium Limited,Altium Designer,24.9.1 (31)*
G04*
G04 Layer_Physical_Order=1*
G04 Layer_Color=255*
%FSLAX25Y25*%
%MOIN*%
G70*
G04*
G04 #@! TF.SameCoordinates,DAC1C6B3-9DD7-490D-B82B-BCBA8ACD2817*
G04*
G04*
G04 #@! TF.FilePolarity,Positive*
G04*
G01*
G75*
%ADD10C,0.01000*%
%ADD11C,0.02000*%
%ADD28R,0.04331X0.05512*%
%ADD29R,0.09100X0.09100*%
%ADD30R,0.06000X0.06000*%
%ADD31R,0.03200X0.03000*%
%ADD32R,0.03000X0.03200*%
%ADD33R,0.05200X0.02200*%
%ADD34R,0.03750X0.02200*%
%ADD35R,0.04375X0.02365*%
%ADD36C,0.04000*%
%ADD37C,0.01200*%
%ADD38C,0.04200*%
%ADD39C,0.05906*%
%ADD40R,0.05906X0.05906*%
%ADD41R,0.05900X0.05900*%
%ADD42C,0.05900*%
%ADD43C,0.02000*%
G36*
X73000Y133000D02*
X73000Y20000D01*
X54000Y1000D01*
X1000Y1000D01*
X1000Y152000D01*
X54000D01*
X73000Y133000D01*
D02*
G37*
%LPC*%
G36*
X11000Y148127D02*
X10191Y148020D01*
X9437Y147708D01*
X9189Y147518D01*
X11000Y145707D01*
X12811Y147518D01*
X12563Y147708D01*
X11809Y148020D01*
X11000Y148127D01*
D02*
G37*
G36*
X13518Y146811D02*
X11707Y145000D01*
X13518Y143189D01*
X13708Y143437D01*
X14020Y144191D01*
X14127Y145000D01*
X14020Y145809D01*
X13708Y146563D01*
X13518Y146811D01*
D02*
G37*
G36*
X8482D02*
X8292Y146563D01*
X7980Y145809D01*
X7873Y145000D01*
X7980Y144191D01*
X8292Y143437D01*
X8482Y143189D01*
X10293Y145000D01*
X8482Y146811D01*
D02*
G37*
G36*
X43000Y146549D02*
X22000D01*
X21024Y146355D01*
X20198Y145802D01*
X14086Y139691D01*
X13612Y139924D01*
X13622Y140000D01*
X13533Y140679D01*
X13271Y141311D01*
X12854Y141854D01*
X12818Y141882D01*
X12833Y142460D01*
X11000Y144293D01*
X9167Y142460D01*
X9182Y141882D01*
X9146Y141854D01*
X8729Y141311D01*
X8467Y140679D01*
X8378Y140000D01*
X8467Y139321D01*
X8729Y138689D01*
X9146Y138146D01*
X9272Y138049D01*
X9102Y137549D01*
X8000D01*
X7025Y137355D01*
X6198Y136802D01*
X3198Y133802D01*
X2645Y132975D01*
X2451Y132000D01*
Y38000D01*
X2645Y37025D01*
X3198Y36198D01*
X7698Y31698D01*
X8525Y31145D01*
X9500Y30951D01*
X17444D01*
X20451Y27944D01*
Y26345D01*
X19986Y25740D01*
X19639Y24901D01*
X19520Y24000D01*
X19639Y23099D01*
X19986Y22260D01*
X20539Y21539D01*
X21260Y20986D01*
X22099Y20639D01*
X23000Y20520D01*
X23901Y20639D01*
X24740Y20986D01*
X25461Y21539D01*
X26014Y22260D01*
X26361Y23099D01*
X26480Y24000D01*
X26361Y24901D01*
X26014Y25740D01*
X25549Y26345D01*
Y29000D01*
X25355Y29976D01*
X24802Y30802D01*
X20302Y35302D01*
X19476Y35855D01*
X18500Y36049D01*
X10556D01*
X7549Y39056D01*
Y130944D01*
X8701Y132096D01*
X9078Y131766D01*
X8729Y131311D01*
X8467Y130679D01*
X8378Y130000D01*
X8467Y129321D01*
X8729Y128689D01*
X9146Y128146D01*
X9618Y127783D01*
X9657Y127500D01*
X9618Y127217D01*
X9146Y126854D01*
X8729Y126311D01*
X8467Y125679D01*
X8378Y125000D01*
X8467Y124321D01*
X8729Y123689D01*
X9146Y123146D01*
X9618Y122783D01*
X9657Y122500D01*
X9618Y122217D01*
X9146Y121854D01*
X8729Y121311D01*
X8467Y120679D01*
X8378Y120000D01*
X8467Y119321D01*
X8729Y118689D01*
X9146Y118146D01*
X9618Y117783D01*
X9657Y117500D01*
X9618Y117217D01*
X9146Y116854D01*
X8729Y116311D01*
X8467Y115679D01*
X8378Y115000D01*
X8467Y114321D01*
X8729Y113689D01*
X9146Y113146D01*
X9618Y112783D01*
X9657Y112500D01*
X9618Y112217D01*
X9146Y111854D01*
X8729Y111311D01*
X8467Y110679D01*
X8378Y110000D01*
X8467Y109321D01*
X8729Y108689D01*
X9146Y108146D01*
X9618Y107783D01*
X9657Y107500D01*
X9618Y107217D01*
X9146Y106854D01*
X8729Y106311D01*
X8467Y105679D01*
X8378Y105000D01*
X8467Y104321D01*
X8729Y103689D01*
X9146Y103146D01*
X9618Y102783D01*
X9657Y102500D01*
X9618Y102217D01*
X9146Y101854D01*
X8729Y101311D01*
X8467Y100679D01*
X8378Y100000D01*
X8467Y99321D01*
X8729Y98689D01*
X9146Y98146D01*
X9618Y97783D01*
X9657Y97500D01*
X9618Y97217D01*
X9146Y96854D01*
X8729Y96311D01*
X8467Y95679D01*
X8378Y95000D01*
X8467Y94321D01*
X8729Y93689D01*
X9146Y93146D01*
X9618Y92783D01*
X9657Y92500D01*
X9618Y92217D01*
X9146Y91854D01*
X8729Y91311D01*
X8467Y90679D01*
X8378Y90000D01*
X8467Y89321D01*
X8729Y88689D01*
X9146Y88146D01*
X9618Y87783D01*
X9657Y87500D01*
X9618Y87217D01*
X9146Y86854D01*
X8729Y86311D01*
X8467Y85679D01*
X8378Y85000D01*
X8467Y84321D01*
X8729Y83689D01*
X9146Y83146D01*
X9618Y82783D01*
X9657Y82500D01*
X9618Y82217D01*
X9146Y81854D01*
X8729Y81311D01*
X8467Y80679D01*
X8378Y80000D01*
X8467Y79321D01*
X8729Y78689D01*
X9146Y78146D01*
X9618Y77783D01*
X9657Y77500D01*
X9618Y77217D01*
X9146Y76854D01*
X8729Y76311D01*
X8467Y75679D01*
X8378Y75000D01*
X8467Y74321D01*
X8729Y73689D01*
X9146Y73146D01*
X9618Y72783D01*
X9657Y72500D01*
X9618Y72217D01*
X9146Y71854D01*
X8729Y71311D01*
X8467Y70679D01*
X8378Y70000D01*
X8467Y69321D01*
X8729Y68689D01*
X9146Y68146D01*
X9618Y67783D01*
X9657Y67500D01*
X9618Y67217D01*
X9146Y66854D01*
X8729Y66311D01*
X8467Y65679D01*
X8378Y65000D01*
X8467Y64321D01*
X8729Y63689D01*
X9146Y63146D01*
X9618Y62783D01*
X9657Y62500D01*
X9618Y62217D01*
X9146Y61854D01*
X8729Y61311D01*
X8467Y60679D01*
X8378Y60000D01*
X8467Y59321D01*
X8729Y58689D01*
X9146Y58146D01*
X9618Y57783D01*
X9657Y57500D01*
X9618Y57217D01*
X9146Y56854D01*
X8729Y56311D01*
X8467Y55679D01*
X8378Y55000D01*
X8467Y54321D01*
X8729Y53689D01*
X9146Y53146D01*
X9618Y52783D01*
X9657Y52500D01*
X9618Y52217D01*
X9146Y51854D01*
X8729Y51311D01*
X8467Y50679D01*
X8378Y50000D01*
X8467Y49321D01*
X8729Y48689D01*
X9146Y48146D01*
X9689Y47729D01*
X10321Y47467D01*
X11000Y47378D01*
X11679Y47467D01*
X12311Y47729D01*
X12854Y48146D01*
X13271Y48689D01*
X13533Y49321D01*
X13622Y50000D01*
X13533Y50679D01*
X13271Y51311D01*
X12854Y51854D01*
X12382Y52217D01*
X12343Y52500D01*
X12382Y52783D01*
X12854Y53146D01*
X13271Y53689D01*
X13533Y54321D01*
X13622Y55000D01*
X13533Y55679D01*
X13271Y56311D01*
X12854Y56854D01*
X12382Y57217D01*
X12343Y57500D01*
X12382Y57783D01*
X12854Y58146D01*
X13007Y58344D01*
X13669Y58389D01*
X14519Y57539D01*
X14850Y57318D01*
X15240Y57240D01*
X15600D01*
Y56660D01*
X20350D01*
Y59860D01*
X20833Y59900D01*
X20850D01*
Y64100D01*
X20833D01*
X20350Y64140D01*
Y67340D01*
X15600D01*
Y66760D01*
X14240D01*
X13850Y66682D01*
X13672Y66563D01*
X13513Y66463D01*
X13007Y66656D01*
X12854Y66854D01*
X12382Y67217D01*
X12343Y67500D01*
X12382Y67783D01*
X12854Y68146D01*
X13271Y68689D01*
X13533Y69321D01*
X13622Y70000D01*
X13533Y70679D01*
X13271Y71311D01*
X12854Y71854D01*
X12382Y72217D01*
X12343Y72500D01*
X12382Y72783D01*
X12854Y73146D01*
X13271Y73689D01*
X13533Y74321D01*
X13622Y75000D01*
X13533Y75679D01*
X13271Y76311D01*
X12854Y76854D01*
X12382Y77217D01*
X12343Y77500D01*
X12382Y77783D01*
X12854Y78146D01*
X13271Y78689D01*
X13533Y79321D01*
X13622Y80000D01*
X13533Y80679D01*
X13271Y81311D01*
X12854Y81854D01*
X12382Y82217D01*
X12343Y82500D01*
X12382Y82783D01*
X12854Y83146D01*
X13271Y83689D01*
X13533Y84321D01*
X13622Y85000D01*
X13533Y85679D01*
X13271Y86311D01*
X12854Y86854D01*
X12382Y87217D01*
X12343Y87500D01*
X12382Y87783D01*
X12854Y88146D01*
X13271Y88689D01*
X13533Y89321D01*
X13622Y90000D01*
X13533Y90679D01*
X13271Y91311D01*
X12854Y91854D01*
X12382Y92217D01*
X12343Y92500D01*
X12382Y92783D01*
X12854Y93146D01*
X13271Y93689D01*
X13533Y94321D01*
X13622Y95000D01*
X13533Y95679D01*
X13271Y96311D01*
X12854Y96854D01*
X12382Y97217D01*
X12343Y97500D01*
X12382Y97783D01*
X12854Y98146D01*
X13271Y98689D01*
X13533Y99321D01*
X13622Y100000D01*
X13533Y100679D01*
X13271Y101311D01*
X12854Y101854D01*
X12382Y102217D01*
X12343Y102500D01*
X12382Y102783D01*
X12854Y103146D01*
X13271Y103689D01*
X13533Y104321D01*
X13622Y105000D01*
X13533Y105679D01*
X13271Y106311D01*
X12854Y106854D01*
X12382Y107217D01*
X12343Y107500D01*
X12382Y107783D01*
X12854Y108146D01*
X13271Y108689D01*
X13533Y109321D01*
X13622Y110000D01*
X13533Y110679D01*
X13271Y111311D01*
X12854Y111854D01*
X12382Y112217D01*
X12343Y112500D01*
X12382Y112783D01*
X12854Y113146D01*
X13271Y113689D01*
X13533Y114321D01*
X13622Y115000D01*
X13533Y115679D01*
X13271Y116311D01*
X12854Y116854D01*
X12382Y117217D01*
X12343Y117500D01*
X12382Y117783D01*
X12854Y118146D01*
X13271Y118689D01*
X13533Y119321D01*
X13622Y120000D01*
X13533Y120679D01*
X13271Y121311D01*
X12854Y121854D01*
X12382Y122217D01*
X12343Y122500D01*
X12382Y122783D01*
X12854Y123146D01*
X13271Y123689D01*
X13533Y124321D01*
X13622Y125000D01*
X13533Y125679D01*
X13271Y126311D01*
X12854Y126854D01*
X12382Y127217D01*
X12343Y127500D01*
X12382Y127783D01*
X12854Y128146D01*
X13271Y128689D01*
X13350Y128878D01*
X13500D01*
X13500Y128878D01*
X13929Y128964D01*
X14293Y129207D01*
X20438Y135352D01*
X20900Y135161D01*
Y135099D01*
X20859Y135000D01*
Y133450D01*
X20400D01*
Y129157D01*
X22546Y131304D01*
X23000Y130850D01*
X23454Y131304D01*
X25600Y129157D01*
Y133450D01*
X25141D01*
Y135000D01*
X25100Y135099D01*
Y135564D01*
X25454Y135916D01*
X26522Y135911D01*
X26952Y135994D01*
X27097Y136090D01*
X27317Y136235D01*
X27317Y136235D01*
X27989Y136901D01*
X29403Y136894D01*
Y136140D01*
X35603D01*
Y139340D01*
X29403D01*
Y139340D01*
X29200Y139138D01*
X27536Y139146D01*
X27106Y139063D01*
X26741Y138822D01*
X26741Y138822D01*
X26069Y138156D01*
X25100Y138161D01*
Y139050D01*
X21362D01*
X21155Y139550D01*
X23056Y141451D01*
X41944D01*
X49451Y133944D01*
Y120529D01*
X40479D01*
Y120683D01*
X35541D01*
Y121458D01*
X35383Y121840D01*
X35000Y121999D01*
X27000D01*
X26617Y121840D01*
X26459Y121458D01*
Y120683D01*
X25122D01*
Y121535D01*
X27465Y123878D01*
X41500D01*
X41500Y123878D01*
X41929Y123964D01*
X42293Y124207D01*
X45793Y127707D01*
X45793Y127707D01*
X46036Y128071D01*
X46122Y128500D01*
X46122Y128500D01*
Y133000D01*
X46036Y133429D01*
X45793Y133793D01*
X45793Y133793D01*
X44793Y134793D01*
X44429Y135036D01*
X44000Y135122D01*
X43597Y135408D01*
Y135600D01*
X37397D01*
Y132400D01*
X43597D01*
X43878Y132017D01*
Y128965D01*
X41035Y126122D01*
X27000D01*
X27000Y126122D01*
X26571Y126036D01*
X26207Y125793D01*
X23207Y122793D01*
X22964Y122429D01*
X22878Y122000D01*
X22878Y122000D01*
Y120683D01*
X21521D01*
Y117317D01*
X22878D01*
Y110026D01*
X18974D01*
Y99926D01*
X29074D01*
Y110026D01*
X25122D01*
Y117317D01*
X26459D01*
Y116542D01*
X26617Y116160D01*
X27000Y116001D01*
X35000D01*
X35383Y116160D01*
X35541Y116542D01*
Y117317D01*
X40479D01*
Y117471D01*
X49451D01*
Y110026D01*
X46926D01*
Y107525D01*
X43976D01*
X43001Y107331D01*
X42174Y106779D01*
X33198Y97802D01*
X32645Y96975D01*
X32451Y96000D01*
Y95493D01*
X31951Y95443D01*
X31884Y95780D01*
X31725Y96018D01*
X30707Y95000D01*
X31725Y93982D01*
X31884Y94220D01*
X31951Y94557D01*
X32451Y94507D01*
Y85992D01*
X31951Y85943D01*
X31884Y86280D01*
X31725Y86518D01*
X30707Y85500D01*
X31725Y84482D01*
X31884Y84720D01*
X31951Y85057D01*
X32451Y85008D01*
Y67756D01*
X32335D01*
Y65187D01*
X32200Y64722D01*
X31771Y64636D01*
X31407Y64393D01*
X31407Y64393D01*
X30819Y63805D01*
X30400Y63600D01*
Y63600D01*
X30400Y63600D01*
X25650D01*
Y60400D01*
X30400D01*
Y60457D01*
X30600Y60878D01*
X31029Y60964D01*
X31393Y61207D01*
X31873Y61687D01*
X32335Y61495D01*
Y61256D01*
X32335Y61244D01*
Y61000D01*
Y60756D01*
X32335Y60744D01*
Y59279D01*
X30400D01*
Y59860D01*
X25650D01*
Y56660D01*
X30400D01*
Y57240D01*
X32335D01*
Y54244D01*
X37240D01*
X37665Y54244D01*
X37740Y53775D01*
Y53775D01*
Y53744D01*
X43364D01*
X40552Y56556D01*
X41259Y57263D01*
X44071Y54451D01*
Y60744D01*
Y67549D01*
X41259Y64737D01*
X40552Y65444D01*
X43364Y68256D01*
X38049D01*
X37740Y68256D01*
X37549Y68677D01*
Y94944D01*
X45032Y102427D01*
X46926D01*
Y99926D01*
X57026D01*
Y110026D01*
X54549D01*
Y135000D01*
X54355Y135976D01*
X53802Y136802D01*
X44802Y145802D01*
X43975Y146355D01*
X43000Y146549D01*
D02*
G37*
G36*
X36103Y131653D02*
X34710Y130260D01*
X36103Y128867D01*
Y131653D01*
D02*
G37*
G36*
X28903D02*
Y128867D01*
X30296Y130260D01*
X28903Y131653D01*
D02*
G37*
G36*
X23000Y130343D02*
X21107Y128450D01*
X24893D01*
X23000Y130343D01*
D02*
G37*
G36*
X35396Y132360D02*
X29610D01*
X31357Y130613D01*
X31003Y130260D01*
X31357Y129906D01*
X29610Y128160D01*
X35396D01*
X33650Y129906D01*
X34003Y130260D01*
X33650Y130613D01*
X35396Y132360D01*
D02*
G37*
G36*
X16000Y125039D02*
X15220Y124884D01*
X14982Y124725D01*
X16000Y123707D01*
X17018Y124725D01*
X16780Y124884D01*
X16000Y125039D01*
D02*
G37*
G36*
X17725Y124018D02*
X16707Y123000D01*
X17725Y121982D01*
X17884Y122220D01*
X18039Y123000D01*
X17884Y123780D01*
X17725Y124018D01*
D02*
G37*
G36*
X14275D02*
X14116Y123780D01*
X13961Y123000D01*
X14116Y122220D01*
X14275Y121982D01*
X15293Y123000D01*
X14275Y124018D01*
D02*
G37*
G36*
X70453Y128453D02*
X63547D01*
Y121547D01*
X70453D01*
Y128453D01*
D02*
G37*
G36*
X16000Y122293D02*
X14982Y121275D01*
X15220Y121116D01*
X16000Y120961D01*
X16780Y121116D01*
X17018Y121275D01*
X16000Y122293D01*
D02*
G37*
G36*
X67000Y118482D02*
X66099Y118364D01*
X65259Y118016D01*
X64538Y117463D01*
X63984Y116741D01*
X63636Y115901D01*
X63517Y115000D01*
X63636Y114099D01*
X63984Y113259D01*
X64538Y112538D01*
X65259Y111984D01*
X66099Y111636D01*
X67000Y111518D01*
X67901Y111636D01*
X68741Y111984D01*
X69463Y112538D01*
X70016Y113259D01*
X70364Y114099D01*
X70482Y115000D01*
X70364Y115901D01*
X70016Y116741D01*
X69463Y117463D01*
X68741Y118016D01*
X67901Y118364D01*
X67000Y118482D01*
D02*
G37*
G36*
Y108483D02*
X66099Y108364D01*
X65259Y108016D01*
X64538Y107463D01*
X63984Y106741D01*
X63636Y105901D01*
X63517Y105000D01*
X63636Y104099D01*
X63984Y103259D01*
X64538Y102538D01*
X65259Y101984D01*
X66099Y101636D01*
X67000Y101517D01*
X67901Y101636D01*
X68741Y101984D01*
X69463Y102538D01*
X70016Y103259D01*
X70364Y104099D01*
X70482Y105000D01*
X70364Y105901D01*
X70016Y106741D01*
X69463Y107463D01*
X68741Y108016D01*
X67901Y108364D01*
X67000Y108483D01*
D02*
G37*
G36*
X30000Y97039D02*
X29220Y96884D01*
X28982Y96725D01*
X30000Y95707D01*
X31018Y96725D01*
X30780Y96884D01*
X30000Y97039D01*
D02*
G37*
G36*
X28275Y96018D02*
X28116Y95780D01*
X27961Y95000D01*
X28116Y94220D01*
X28275Y93982D01*
X29293Y95000D01*
X28275Y96018D01*
D02*
G37*
G36*
X30000Y94293D02*
X28982Y93275D01*
X29220Y93116D01*
X30000Y92961D01*
X30780Y93116D01*
X31018Y93275D01*
X30000Y94293D01*
D02*
G37*
G36*
X67000Y98483D02*
X66099Y98364D01*
X65259Y98016D01*
X64538Y97462D01*
X63984Y96741D01*
X63636Y95901D01*
X63517Y95000D01*
X63636Y94099D01*
X63984Y93259D01*
X64538Y92537D01*
X65259Y91984D01*
X66099Y91636D01*
X67000Y91518D01*
X67901Y91636D01*
X68741Y91984D01*
X69463Y92537D01*
X70016Y93259D01*
X70364Y94099D01*
X70482Y95000D01*
X70364Y95901D01*
X70016Y96741D01*
X69463Y97462D01*
X68741Y98016D01*
X67901Y98364D01*
X67000Y98483D01*
D02*
G37*
G36*
X30000Y87539D02*
X29220Y87384D01*
X28982Y87225D01*
X30000Y86207D01*
X31018Y87225D01*
X30780Y87384D01*
X30000Y87539D01*
D02*
G37*
G36*
X28275Y86518D02*
X28116Y86280D01*
X27961Y85500D01*
X28116Y84720D01*
X28275Y84482D01*
X29293Y85500D01*
X28275Y86518D01*
D02*
G37*
G36*
X30000Y84793D02*
X28982Y83775D01*
X29220Y83616D01*
X30000Y83461D01*
X30780Y83616D01*
X31018Y83775D01*
X30000Y84793D01*
D02*
G37*
G36*
X67000Y88482D02*
X66099Y88364D01*
X65259Y88016D01*
X64538Y87463D01*
X63984Y86741D01*
X63636Y85901D01*
X63517Y85000D01*
X63636Y84099D01*
X63984Y83259D01*
X64538Y82538D01*
X65259Y81984D01*
X66099Y81636D01*
X67000Y81517D01*
X67901Y81636D01*
X68741Y81984D01*
X69463Y82538D01*
X70016Y83259D01*
X70364Y84099D01*
X70482Y85000D01*
X70364Y85901D01*
X70016Y86741D01*
X69463Y87463D01*
X68741Y88016D01*
X67901Y88364D01*
X67000Y88482D01*
D02*
G37*
G36*
X57026Y82074D02*
X46926D01*
Y71974D01*
X57026D01*
Y82074D01*
D02*
G37*
G36*
X29074D02*
X18974D01*
Y71974D01*
X29074D01*
Y82074D01*
D02*
G37*
G36*
X67000Y78483D02*
X66099Y78364D01*
X65259Y78016D01*
X64538Y77463D01*
X63984Y76741D01*
X63636Y75901D01*
X63517Y75000D01*
X63636Y74099D01*
X63984Y73259D01*
X64538Y72537D01*
X65259Y71984D01*
X66099Y71636D01*
X67000Y71517D01*
X67901Y71636D01*
X68741Y71984D01*
X69463Y72537D01*
X70016Y73259D01*
X70364Y74099D01*
X70482Y75000D01*
X70364Y75901D01*
X70016Y76741D01*
X69463Y77463D01*
X68741Y78016D01*
X67901Y78364D01*
X67000Y78483D01*
D02*
G37*
G36*
X30400Y67340D02*
X25650D01*
Y66722D01*
X24800D01*
X24800Y66722D01*
X24371Y66636D01*
X24007Y66393D01*
X24007Y66393D01*
X22407Y64793D01*
X22164Y64429D01*
X22078Y64000D01*
X22079Y64000D01*
Y55500D01*
X22078Y55500D01*
X22164Y55071D01*
X22407Y54707D01*
X26907Y50207D01*
X26907Y50207D01*
X27271Y49964D01*
X27700Y49878D01*
X27700Y49878D01*
X32950D01*
Y48900D01*
X36900D01*
X37000Y48859D01*
X39000D01*
X39099Y48900D01*
X43050D01*
Y49878D01*
X63035D01*
X65878Y47035D01*
Y44640D01*
X65378Y44426D01*
X65100Y44541D01*
X61900D01*
X61517Y44383D01*
X61359Y44000D01*
Y42000D01*
X61517Y41617D01*
X61900Y41459D01*
X65100D01*
X65378Y41574D01*
X65878Y41360D01*
Y32500D01*
X63500D01*
Y25500D01*
X70500D01*
Y32500D01*
X68122D01*
Y47500D01*
X68122Y47500D01*
X68036Y47929D01*
X67793Y48293D01*
X67793Y48293D01*
X64293Y51793D01*
X63929Y52036D01*
X63500Y52122D01*
X63500Y52122D01*
X43050D01*
Y53100D01*
X39099D01*
X39000Y53141D01*
X37000D01*
X36900Y53100D01*
X32950D01*
Y52122D01*
X28165D01*
X24321Y55965D01*
Y63535D01*
X25150Y64364D01*
X25650Y64202D01*
Y64140D01*
X30400D01*
Y67340D01*
D02*
G37*
G36*
X67000Y68483D02*
X66099Y68364D01*
X65259Y68016D01*
X64538Y67462D01*
X63984Y66741D01*
X63636Y65901D01*
X63517Y65000D01*
X63636Y64099D01*
X63984Y63259D01*
X64538Y62537D01*
X65259Y61984D01*
X66099Y61636D01*
X67000Y61518D01*
X67901Y61636D01*
X68741Y61984D01*
X69463Y62537D01*
X70016Y63259D01*
X70364Y64099D01*
X70482Y65000D01*
X70364Y65901D01*
X70016Y66741D01*
X69463Y67462D01*
X68741Y68016D01*
X67901Y68364D01*
X67000Y68483D01*
D02*
G37*
G36*
Y58482D02*
X66099Y58364D01*
X65259Y58016D01*
X64538Y57463D01*
X63984Y56741D01*
X63636Y55901D01*
X63517Y55000D01*
X63636Y54099D01*
X63984Y53259D01*
X64538Y52538D01*
X65259Y51984D01*
X66099Y51636D01*
X67000Y51517D01*
X67901Y51636D01*
X68741Y51984D01*
X69463Y52538D01*
X70016Y53259D01*
X70364Y54099D01*
X70482Y55000D01*
X70364Y55901D01*
X70016Y56741D01*
X69463Y57463D01*
X68741Y58016D01*
X67901Y58364D01*
X67000Y58482D01*
D02*
G37*
G36*
X11000Y45039D02*
X10220Y44884D01*
X9982Y44725D01*
X11000Y43707D01*
X12018Y44725D01*
X11780Y44884D01*
X11000Y45039D01*
D02*
G37*
G36*
X12725Y44018D02*
X11707Y43000D01*
X12725Y41982D01*
X12884Y42220D01*
X13039Y43000D01*
X12884Y43780D01*
X12725Y44018D01*
D02*
G37*
G36*
X9275D02*
X9116Y43780D01*
X8961Y43000D01*
X9116Y42220D01*
X9275Y41982D01*
X10293Y43000D01*
X9275Y44018D01*
D02*
G37*
G36*
X59100Y44541D02*
X55900D01*
X55517Y44383D01*
X55359Y44000D01*
Y42000D01*
X55517Y41617D01*
X55900Y41459D01*
X59100D01*
X59483Y41617D01*
X59641Y42000D01*
Y44000D01*
X59483Y44383D01*
X59100Y44541D01*
D02*
G37*
G36*
X53100D02*
X49900D01*
X49517Y44383D01*
X49359Y44000D01*
Y42000D01*
X49517Y41617D01*
X49900Y41459D01*
X53100D01*
X53483Y41617D01*
X53641Y42000D01*
Y44000D01*
X53483Y44383D01*
X53100Y44541D01*
D02*
G37*
G36*
X47100D02*
X43900D01*
X43517Y44383D01*
X43359Y44000D01*
Y42000D01*
X43517Y41617D01*
X43900Y41459D01*
X47100D01*
X47483Y41617D01*
X47641Y42000D01*
Y44000D01*
X47483Y44383D01*
X47100Y44541D01*
D02*
G37*
G36*
X41100D02*
X37900D01*
X37517Y44383D01*
X37359Y44000D01*
Y42000D01*
X37517Y41617D01*
X37900Y41459D01*
X41100D01*
X41483Y41617D01*
X41641Y42000D01*
Y44000D01*
X41483Y44383D01*
X41100Y44541D01*
D02*
G37*
G36*
X35100D02*
X31900D01*
X31517Y44383D01*
X31359Y44000D01*
Y42000D01*
X31517Y41617D01*
X31900Y41459D01*
X35100D01*
X35483Y41617D01*
X35641Y42000D01*
Y44000D01*
X35483Y44383D01*
X35100Y44541D01*
D02*
G37*
G36*
X29100D02*
X25900D01*
X25517Y44383D01*
X25359Y44000D01*
Y42000D01*
X25517Y41617D01*
X25900Y41459D01*
X29100D01*
X29483Y41617D01*
X29641Y42000D01*
Y44000D01*
X29483Y44383D01*
X29100Y44541D01*
D02*
G37*
G36*
X23100D02*
X19900D01*
X19517Y44383D01*
X19359Y44000D01*
Y42000D01*
X19517Y41617D01*
X19900Y41459D01*
X23100D01*
X23483Y41617D01*
X23641Y42000D01*
Y44000D01*
X23483Y44383D01*
X23100Y44541D01*
D02*
G37*
G36*
X11000Y42293D02*
X9982Y41275D01*
X10220Y41116D01*
X11000Y40961D01*
X11780Y41116D01*
X12018Y41275D01*
X11000Y42293D01*
D02*
G37*
G36*
X16243Y27950D02*
X9757D01*
X13000Y24707D01*
X16243Y27950D01*
D02*
G37*
G36*
X16950Y27243D02*
X13707Y24000D01*
X16950Y20757D01*
Y27243D01*
D02*
G37*
G36*
X9050D02*
Y20757D01*
X12293Y24000D01*
X9050Y27243D01*
D02*
G37*
G36*
X43000Y27480D02*
X42099Y27361D01*
X41260Y27014D01*
X40539Y26461D01*
X39986Y25740D01*
X39639Y24901D01*
X39520Y24000D01*
X39639Y23099D01*
X39986Y22260D01*
X40539Y21539D01*
X41260Y20986D01*
X42099Y20639D01*
X43000Y20520D01*
X43901Y20639D01*
X44740Y20986D01*
X45461Y21539D01*
X46014Y22260D01*
X46361Y23099D01*
X46480Y24000D01*
X46361Y24901D01*
X46014Y25740D01*
X45461Y26461D01*
X44740Y27014D01*
X43901Y27361D01*
X43000Y27480D01*
D02*
G37*
G36*
X33000D02*
X32099Y27361D01*
X31260Y27014D01*
X30539Y26461D01*
X29986Y25740D01*
X29639Y24901D01*
X29520Y24000D01*
X29639Y23099D01*
X29986Y22260D01*
X30539Y21539D01*
X31260Y20986D01*
X32099Y20639D01*
X33000Y20520D01*
X33901Y20639D01*
X34740Y20986D01*
X35461Y21539D01*
X36014Y22260D01*
X36361Y23099D01*
X36480Y24000D01*
X36361Y24901D01*
X36014Y25740D01*
X35461Y26461D01*
X34740Y27014D01*
X33901Y27361D01*
X33000Y27480D01*
D02*
G37*
G36*
X13000Y23293D02*
X9757Y20050D01*
X16243D01*
X13000Y23293D01*
D02*
G37*
%LPD*%
D10*
X14240Y65740D02*
X18475D01*
X13500Y65000D02*
X14240Y65740D01*
X11000Y65000D02*
X13500D01*
X15240Y58260D02*
X18475D01*
X13500Y60000D02*
X15240Y58260D01*
X11000Y60000D02*
X13500D01*
X28525Y58260D02*
X34287D01*
X34240Y58260D02*
X35000Y57500D01*
X15000Y62000D02*
X17975D01*
D11*
X37791Y119000D02*
X52000D01*
D28*
X35000Y64500D02*
D03*
X40905D02*
D03*
X35000Y57500D02*
D03*
X40905D02*
D03*
D29*
X24024Y77024D02*
D03*
X51976D02*
D03*
X24024Y104976D02*
D03*
X51976D02*
D03*
D30*
X67000Y29000D02*
D03*
D31*
X23000Y130950D02*
D03*
Y137050D02*
D03*
D32*
X41050Y51000D02*
D03*
X34950D02*
D03*
D33*
X40497Y134000D02*
D03*
X32503Y130260D02*
D03*
Y137740D02*
D03*
D34*
X28025Y65740D02*
D03*
Y62000D02*
D03*
Y58260D02*
D03*
X17975D02*
D03*
Y62000D02*
D03*
Y65740D02*
D03*
D35*
X24209Y119000D02*
D03*
X37791D02*
D03*
D36*
X43976Y104976D02*
X51976D01*
X35000Y96000D02*
X43976Y104976D01*
X35000Y65547D02*
Y96000D01*
X52000Y104976D02*
Y135000D01*
X43000Y144000D02*
X52000Y135000D01*
X40905Y57500D02*
Y64500D01*
X23000Y24000D02*
Y29000D01*
X9500Y33500D02*
X18500D01*
X23000Y29000D01*
X5000Y38000D02*
X9500Y33500D01*
X5000Y38000D02*
Y132000D01*
X11000Y135000D02*
X13000D01*
X22000Y144000D01*
X43000D01*
X5000Y132000D02*
X8000Y135000D01*
X11000D01*
D37*
X45000Y128500D02*
Y133000D01*
X41500Y125000D02*
X45000Y128500D01*
X27000Y125000D02*
X41500D01*
X20550Y137050D02*
X23000D01*
X13500Y130000D02*
X20550Y137050D01*
X11500Y130000D02*
X13500D01*
X63500Y51000D02*
X67000Y47500D01*
X41050Y51000D02*
X63500D01*
X23200Y55500D02*
X27700Y51000D01*
X34950D01*
X34100Y63600D02*
X35000Y64500D01*
X32200Y63600D02*
X34100D01*
X30600Y62000D02*
X32200Y63600D01*
X28525Y62000D02*
X30600D01*
X23200Y55500D02*
Y64000D01*
X24800Y65600D02*
X28385D01*
X23200Y64000D02*
X24800Y65600D01*
X44000Y134000D02*
X45000Y133000D01*
X40497Y134000D02*
X44000D01*
X27530Y138025D02*
X32500Y138000D01*
X26528Y137032D02*
X27530Y138025D01*
X23000Y137050D02*
X26528Y137032D01*
X28385Y65600D02*
X28525Y65740D01*
X24000Y105000D02*
Y122000D01*
X27000Y125000D01*
X67000Y29000D02*
Y47500D01*
D38*
X11000Y50000D02*
D03*
Y55000D02*
D03*
Y60000D02*
D03*
Y65000D02*
D03*
Y70000D02*
D03*
Y75000D02*
D03*
Y80000D02*
D03*
Y85000D02*
D03*
Y90000D02*
D03*
Y95000D02*
D03*
Y100000D02*
D03*
Y105000D02*
D03*
Y110000D02*
D03*
Y115000D02*
D03*
Y120000D02*
D03*
Y125000D02*
D03*
Y130000D02*
D03*
Y135000D02*
D03*
Y140000D02*
D03*
Y145000D02*
D03*
D39*
X67000Y55000D02*
D03*
Y65000D02*
D03*
Y75000D02*
D03*
Y85000D02*
D03*
Y95000D02*
D03*
Y105000D02*
D03*
Y115000D02*
D03*
D40*
Y125000D02*
D03*
D41*
X13000Y24000D02*
D03*
D42*
X23000D02*
D03*
X33000D02*
D03*
X43000D02*
D03*
D43*
X30000Y85500D02*
D03*
Y95000D02*
D03*
X11000Y43000D02*
D03*
X16000Y123000D02*
D03*
X14500Y62500D02*
D03*
M02*
