G04*
G04 #@! TF.GenerationSoftware,Altium Limited,Altium Designer,24.9.1 (31)*
G04*
G04 Layer_Color=65535*
%FSLAX25Y25*%
%MOIN*%
G70*
G04*
G04 #@! TF.SameCoordinates,DAC1C6B3-9DD7-490D-B82B-BCBA8ACD2817*
G04*
G04*
G04 #@! TF.FilePolarity,Positive*
G04*
G01*
G75*
%ADD10C,0.01000*%
%ADD11C,0.02000*%
%ADD12C,0.00600*%
%ADD13C,0.00800*%
%ADD14C,0.00300*%
D10*
X14000Y143882D02*
G03*
X14000Y146118I0J1118D01*
G01*
X5000Y148500D02*
X10500D01*
X5000Y46500D02*
X10500D01*
X72000Y113000D02*
Y128000D01*
X70500Y129500D02*
X72000Y128000D01*
X70500Y111500D02*
X72000Y113000D01*
Y93000D02*
Y107000D01*
X70500Y108500D02*
X72000Y107000D01*
X70500Y91500D02*
X72000Y93000D01*
Y73000D02*
Y87000D01*
X70500Y88500D02*
X72000Y87000D01*
X70500Y71500D02*
X72000Y73000D01*
X70500Y51500D02*
X72000Y53000D01*
X70500Y68500D02*
X72000Y67000D01*
Y53000D02*
Y67000D01*
X5000Y17498D02*
Y12500D01*
X6000Y11500D01*
X7999D01*
X8999Y12500D01*
Y17498D01*
X10998Y11500D02*
Y17498D01*
X13997D01*
X14997Y16498D01*
Y14499D01*
X13997Y13499D01*
X10998D01*
X16996Y14499D02*
X20995D01*
X22994Y17498D02*
Y11500D01*
X25993D01*
X26993Y12500D01*
Y13499D01*
X25993Y14499D01*
X22994D01*
X25993D01*
X26993Y15499D01*
Y16498D01*
X25993Y17498D01*
X22994D01*
X28992Y15499D02*
Y12500D01*
X29992Y11500D01*
X32991D01*
Y15499D01*
X34990D02*
X38989D01*
X34990Y11500D01*
X38989D01*
X40988Y15499D02*
X44987D01*
X40988Y11500D01*
X44987D01*
X49985D02*
X47986D01*
X46986Y12500D01*
Y14499D01*
X47986Y15499D01*
X49985D01*
X50985Y14499D01*
Y13499D01*
X46986D01*
X52984Y15499D02*
Y11500D01*
Y13499D01*
X53984Y14499D01*
X54984Y15499D01*
X55984D01*
X5500Y7166D02*
X6833Y4500D01*
X8166Y7166D01*
X9499Y4500D02*
X10832D01*
X10165D01*
Y8499D01*
X9499Y7832D01*
X12831Y4500D02*
Y5166D01*
X13497D01*
Y4500D01*
X12831D01*
X16163Y7832D02*
X16830Y8499D01*
X18163D01*
X18829Y7832D01*
Y5166D01*
X18163Y4500D01*
X16830D01*
X16163Y5166D01*
Y7832D01*
D11*
X53426Y111536D02*
G03*
X50527Y111536I-1449J-386D01*
G01*
D12*
X27203Y137740D02*
G03*
X27203Y137740I-300J0D01*
G01*
X40532Y88244D02*
Y88244D01*
Y88244D02*
X40667Y88261D01*
X40798Y88314D01*
X40977Y88443D01*
X41143Y88596D01*
X41330Y88812D01*
X41515Y89094D01*
X41600Y89261D01*
X41676Y89445D01*
X41740Y89648D01*
X41789Y89869D01*
X41820Y90109D01*
X41832Y90369D01*
X41820Y90628D02*
X41832Y90369D01*
X41789Y90868D02*
X41820Y90628D01*
X41740Y91090D02*
X41789Y90868D01*
X41676Y91292D02*
X41740Y91090D01*
X41600Y91477D02*
X41676Y91292D01*
X41515Y91644D02*
X41600Y91477D01*
X41330Y91926D02*
X41515Y91644D01*
X41143Y92141D02*
X41330Y91926D01*
X40977Y92294D02*
X41143Y92141D01*
X40798Y92423D02*
X40977Y92294D01*
X40702Y92467D02*
X40798Y92423D01*
X40602Y92490D02*
X40702Y92467D01*
X40501Y92493D02*
X40602Y92490D01*
X40402Y92478D02*
X40501Y92493D01*
X40309Y92443D02*
X40402Y92478D01*
X40222Y92391D02*
X40309Y92443D01*
X40146Y92322D02*
X40222Y92391D01*
X40083Y92237D02*
X40146Y92322D01*
X40037Y92142D02*
X40083Y92237D01*
X40012Y92042D02*
X40037Y92142D01*
X40007Y91941D02*
X40012Y92042D01*
X40007Y91941D02*
X40022Y91841D01*
X40055Y91745D01*
X40105Y91657D01*
X40173Y91579D01*
X40257Y91514D01*
X40347Y91443D01*
X40430Y91358D01*
X40523Y91239D01*
X40616Y91082D01*
X40696Y90887D01*
X40752Y90649D01*
X42671Y90501D02*
X42692Y90220D01*
X40752Y90088D02*
X40773Y90369D01*
X40696Y89851D02*
X40752Y90088D01*
X40616Y89655D02*
X40696Y89851D01*
X40525Y89499D02*
X40616Y89655D01*
X40432Y89381D02*
X40525Y89499D01*
X40350Y89298D02*
X40432Y89381D01*
X40265Y89230D02*
X40350Y89298D01*
X40178Y89167D02*
X40265Y89230D01*
X40108Y89090D02*
X40178Y89167D01*
X40055Y89003D02*
X40108Y89090D01*
X40020Y88908D02*
X40055Y89003D01*
X40004Y88807D02*
X40020Y88908D01*
X40004Y88807D02*
X40007Y88705D01*
X40030Y88604D01*
X40075Y88506D01*
X40161Y88394D01*
X40271Y88311D01*
X40397Y88261D01*
X40532Y88244D01*
X41664Y86787D02*
X41800Y86804D01*
X41931Y86859D01*
X42030Y86922D01*
X42244Y87085D01*
X42533Y87354D01*
X42694Y87529D01*
X42859Y87734D01*
X43023Y87968D01*
X43181Y88233D01*
X43329Y88529D01*
X43461Y88856D01*
X43572Y89217D01*
X43657Y89610D01*
X43712Y90038D01*
X43731Y90501D01*
X43712Y90964D02*
X43731Y90501D01*
X43657Y91392D02*
X43712Y90964D01*
X43572Y91785D02*
X43657Y91392D01*
X43460Y92146D02*
X43572Y91785D01*
X43329Y92473D02*
X43460Y92146D01*
X43181Y92769D02*
X43329Y92473D01*
X43023Y93033D02*
X43181Y92769D01*
X42859Y93268D02*
X43023Y93033D01*
X42694Y93472D02*
X42859Y93268D01*
X42533Y93648D02*
X42694Y93472D01*
X42243Y93917D02*
X42533Y93648D01*
X42028Y94080D02*
X42243Y93917D01*
X41929Y94143D02*
X42028Y94080D01*
X41831Y94187D02*
X41929Y94143D01*
X41730Y94211D02*
X41831Y94187D01*
X41628Y94214D02*
X41730Y94211D01*
X41528Y94198D02*
X41628Y94214D01*
X41432Y94163D02*
X41528Y94198D01*
X41345Y94110D02*
X41432Y94163D01*
X41268Y94040D02*
X41345Y94110D01*
X41205Y93953D02*
X41268Y94040D01*
X41161Y93856D02*
X41205Y93953D01*
X41138Y93754D02*
X41161Y93856D01*
X41135Y93652D02*
X41138Y93754D01*
X41135Y93652D02*
X41151Y93552D01*
X41186Y93456D01*
X41239Y93369D01*
X41309Y93292D01*
X41396Y93230D01*
X41600Y93076D01*
X41805Y92880D01*
X42038Y92599D01*
X42156Y92424D01*
X42271Y92225D01*
X42378Y92002D01*
X42473Y91755D01*
X42554Y91481D01*
X42617Y91182D01*
X42657Y90855D01*
X42671Y90501D01*
X42657Y90152D02*
X42671Y90501D01*
X42618Y89829D02*
X42657Y90152D01*
X42557Y89533D02*
X42618Y89829D01*
X42479Y89262D02*
X42557Y89533D01*
X42385Y89017D02*
X42479Y89262D01*
X42281Y88795D02*
X42385Y89017D01*
X42168Y88597D02*
X42281Y88795D01*
X42052Y88422D02*
X42168Y88597D01*
X41821Y88138D02*
X42052Y88422D01*
X41616Y87939D02*
X41821Y88138D01*
X41465Y87819D02*
X41616Y87939D01*
X41396Y87773D02*
X41465Y87819D01*
X41309Y87710D02*
X41396Y87773D01*
X41239Y87633D02*
X41309Y87710D01*
X41186Y87546D02*
X41239Y87633D01*
X41151Y87450D02*
X41186Y87546D01*
X41135Y87350D02*
X41151Y87450D01*
X41135Y87350D02*
X41138Y87248D01*
X41161Y87147D01*
X41205Y87049D01*
X41293Y86936D01*
X41404Y86854D01*
X41530Y86804D01*
X41664Y86787D01*
X39138Y94993D02*
X39138D01*
X39138D02*
X39197Y95025D01*
X39257Y95038D01*
X39318Y95033D01*
X39375Y95013D01*
X39425Y94980D01*
X39464Y94933D01*
X39491Y94877D01*
X39500Y94811D01*
X39500Y86189D01*
X39491Y86123D02*
X39500Y86189D01*
X39464Y86067D02*
X39491Y86123D01*
X39425Y86021D02*
X39464Y86067D01*
X39375Y85988D02*
X39425Y86021D01*
X39318Y85968D02*
X39375Y85988D01*
X39258Y85964D02*
X39318Y85968D01*
X39197Y85977D02*
X39258Y85964D01*
X39138Y86009D02*
X39197Y85977D01*
X35374Y88835D02*
X39138Y86009D01*
X35318Y88903D02*
X35374Y88835D01*
X33148Y88903D02*
X35318D01*
X33148D02*
Y92097D01*
X35318Y92097D01*
X35374Y92165D01*
X39138Y94993D01*
X29884Y108650D02*
X46116D01*
X55650Y82884D02*
Y99116D01*
X29884Y73350D02*
X46116D01*
X20350Y82884D02*
Y99116D01*
X25100Y133661D02*
Y134339D01*
X20900Y133661D02*
Y134339D01*
X37661Y53100D02*
X38339D01*
X37661Y48900D02*
X38339D01*
X33250Y140500D02*
X39750D01*
Y127500D02*
Y131590D01*
X33250Y127500D02*
X39750D01*
X33250Y132670D02*
Y135330D01*
X39750Y136410D02*
Y140500D01*
X19350Y68200D02*
X26650D01*
X19350Y55800D02*
X26650D01*
X24890Y115842D02*
X37110D01*
X24890Y122158D02*
X37110D01*
X4650Y20000D02*
X9267D01*
X51350D02*
Y44600D01*
X4650D02*
X51350D01*
X4650Y20000D02*
Y44600D01*
X16733Y20000D02*
X21534D01*
X24465D02*
X31534D01*
X34466D02*
X41535D01*
X44466D02*
X51350D01*
D13*
X59168Y77333D02*
X58501Y76666D01*
Y75333D01*
X59168Y74667D01*
X61834D01*
X62500Y75333D01*
Y76666D01*
X61834Y77333D01*
X58501Y78665D02*
X62500D01*
X60501D01*
Y81331D01*
X58501D01*
X62500D01*
X59168Y82664D02*
X58501Y83331D01*
Y84663D01*
X59168Y85330D01*
X59834D01*
X60501Y84663D01*
Y83997D01*
Y84663D01*
X61167Y85330D01*
X61834D01*
X62500Y84663D01*
Y83331D01*
X61834Y82664D01*
X59168Y57166D02*
X58501Y56499D01*
Y55166D01*
X59168Y54500D01*
X61834D01*
X62500Y55166D01*
Y56499D01*
X61834Y57166D01*
X58501Y58499D02*
X62500D01*
X60501D01*
Y61164D01*
X58501D01*
X62500D01*
Y64497D02*
X58501D01*
X60501Y62497D01*
Y65163D01*
X59168Y97499D02*
X58501Y96833D01*
Y95500D01*
X59168Y94833D01*
X61834D01*
X62500Y95500D01*
Y96833D01*
X61834Y97499D01*
X58501Y98832D02*
X62500D01*
X60501D01*
Y101498D01*
X58501D01*
X62500D01*
Y105497D02*
Y102831D01*
X59834Y105497D01*
X59168D01*
X58501Y104830D01*
Y103497D01*
X59168Y102831D01*
Y117666D02*
X58501Y116999D01*
Y115666D01*
X59168Y115000D01*
X61834D01*
X62500Y115666D01*
Y116999D01*
X61834Y117666D01*
X58501Y118999D02*
X62500D01*
X60501D01*
Y121665D01*
X58501D01*
X62500D01*
Y122997D02*
Y124330D01*
Y123664D01*
X58501D01*
X59168Y122997D01*
Y21666D02*
X58501Y20999D01*
Y19667D01*
X59168Y19000D01*
X59834D01*
X60501Y19667D01*
Y20999D01*
X61167Y21666D01*
X61834D01*
X62500Y20999D01*
Y19667D01*
X61834Y19000D01*
X58501Y25664D02*
Y22999D01*
X62500D01*
Y25664D01*
X60501Y22999D02*
Y24332D01*
X62500Y26997D02*
X58501D01*
X62500Y29663D01*
X58501D01*
X59168Y33662D02*
X58501Y32996D01*
Y31663D01*
X59168Y30996D01*
X59834D01*
X60501Y31663D01*
Y32996D01*
X61167Y33662D01*
X61834D01*
X62500Y32996D01*
Y31663D01*
X61834Y30996D01*
X58501Y37661D02*
Y34995D01*
X62500D01*
Y37661D01*
X60501Y34995D02*
Y36328D01*
X52500Y44499D02*
Y41166D01*
X53166Y40500D01*
X54499D01*
X55166Y41166D01*
Y44499D01*
X59165Y40500D02*
X56499D01*
X59165Y43166D01*
Y43832D01*
X58498Y44499D01*
X57165D01*
X56499Y43832D01*
X48166Y65832D02*
X47499Y66499D01*
X46166D01*
X45500Y65832D01*
Y63166D01*
X46166Y62500D01*
X47499D01*
X48166Y63166D01*
X49499Y62500D02*
X50832D01*
X50165D01*
Y66499D01*
X49499Y65832D01*
X19000Y131500D02*
X15001D01*
Y133499D01*
X15668Y134166D01*
X17001D01*
X17667Y133499D01*
Y131500D01*
Y132833D02*
X19000Y134166D01*
Y135499D02*
Y136832D01*
Y136165D01*
X15001D01*
X15668Y135499D01*
X7000Y49500D02*
X3001D01*
Y51499D01*
X3668Y52166D01*
X5001D01*
X5667Y51499D01*
Y49500D01*
X7000Y53499D02*
Y54832D01*
Y54165D01*
X3001D01*
X3668Y53499D01*
X15001Y86500D02*
X19000D01*
Y89166D01*
X15668Y93164D02*
X15001Y92498D01*
Y91165D01*
X15668Y90499D01*
X16334D01*
X17001Y91165D01*
Y92498D01*
X17667Y93164D01*
X18334D01*
X19000Y92498D01*
Y91165D01*
X18334Y90499D01*
X19000Y94497D02*
Y95830D01*
Y95164D01*
X15001D01*
X15668Y94497D01*
Y116666D02*
X15001Y115999D01*
Y114666D01*
X15668Y114000D01*
X18334D01*
X19000Y114666D01*
Y115999D01*
X18334Y116666D01*
X19000Y117999D02*
X15001D01*
Y119998D01*
X15668Y120665D01*
X17001D01*
X17667Y119998D01*
Y117999D01*
Y119332D02*
X19000Y120665D01*
Y121997D02*
Y123330D01*
Y122664D01*
X15001D01*
X15668Y121997D01*
X45001Y131500D02*
X48334D01*
X49000Y132167D01*
Y133499D01*
X48334Y134166D01*
X45001D01*
X49000Y135499D02*
Y136832D01*
Y136165D01*
X45001D01*
X45668Y135499D01*
X48166Y58832D02*
X47499Y59499D01*
X46166D01*
X45500Y58832D01*
Y56166D01*
X46166Y55500D01*
X47499D01*
X48166Y56166D01*
X49499Y58832D02*
X50165Y59499D01*
X51498D01*
X52165Y58832D01*
Y58166D01*
X51498Y57499D01*
X50832D01*
X51498D01*
X52165Y56833D01*
Y56166D01*
X51498Y55500D01*
X50165D01*
X49499Y56166D01*
X45500Y49000D02*
Y52999D01*
X47499D01*
X48166Y52332D01*
Y50999D01*
X47499Y50333D01*
X45500D01*
X46833D02*
X48166Y49000D01*
X49499D02*
X50832D01*
X50165D01*
Y52999D01*
X49499Y52332D01*
X52831Y49000D02*
X54164D01*
X53497D01*
Y52999D01*
X52831Y52332D01*
X19500Y53999D02*
Y50666D01*
X20166Y50000D01*
X21499D01*
X22166Y50666D01*
Y53999D01*
X23499Y53332D02*
X24165Y53999D01*
X25498D01*
X26164Y53332D01*
Y52666D01*
X25498Y51999D01*
X24832D01*
X25498D01*
X26164Y51333D01*
Y50666D01*
X25498Y50000D01*
X24165D01*
X23499Y50666D01*
D14*
X15725Y71605D02*
X19057Y68273D01*
X15725D02*
X19057Y71605D01*
X15725Y69939D02*
X19057D01*
X17391Y68273D02*
Y71605D01*
X41500Y112335D02*
X38168Y115667D01*
X41500D02*
X38168Y112335D01*
X41500Y114001D02*
X38168D01*
X39834Y115667D02*
Y112335D01*
X5500Y25165D02*
X8832Y21833D01*
X5500D02*
X8832Y25165D01*
X5500Y23499D02*
X8832D01*
X7166Y21833D02*
Y25165D01*
M02*
