G04*
G04 #@! TF.GenerationSoftware,Altium Limited,Altium Designer,24.9.1 (31)*
G04*
G04 Layer_Color=32896*
%FSLAX25Y25*%
%MOIN*%
G70*
G04*
G04 #@! TF.SameCoordinates,DAC1C6B3-9DD7-490D-B82B-BCBA8ACD2817*
G04*
G04*
G04 #@! TF.FilePolarity,Positive*
G04*
G01*
G75*
%ADD10C,0.01000*%
%ADD12C,0.00600*%
%ADD14C,0.00300*%
%ADD48C,0.00787*%
D10*
X65500Y36000D02*
X61501D01*
Y34001D01*
X62168Y33334D01*
X63501D01*
X64167Y34001D01*
Y36000D01*
Y34667D02*
X65500Y33334D01*
X64834Y32001D02*
X65500Y31335D01*
Y30002D01*
X64834Y29335D01*
X62168D01*
X61501Y30002D01*
Y31335D01*
X62168Y32001D01*
X62834D01*
X63501Y31335D01*
Y29335D01*
X59500Y36000D02*
X55501D01*
Y34001D01*
X56168Y33334D01*
X57501D01*
X58167Y34001D01*
Y36000D01*
Y34667D02*
X59500Y33334D01*
X56168Y32001D02*
X55501Y31335D01*
Y30002D01*
X56168Y29335D01*
X56834D01*
X57501Y30002D01*
X58167Y29335D01*
X58834D01*
X59500Y30002D01*
Y31335D01*
X58834Y32001D01*
X58167D01*
X57501Y31335D01*
X56834Y32001D01*
X56168D01*
X57501Y31335D02*
Y30002D01*
X53500Y36000D02*
X49501D01*
Y34001D01*
X50168Y33334D01*
X51501D01*
X52167Y34001D01*
Y36000D01*
Y34667D02*
X53500Y33334D01*
X49501Y32001D02*
Y29335D01*
X50168D01*
X52834Y32001D01*
X53500D01*
X47500Y36000D02*
X43501D01*
Y34001D01*
X44168Y33334D01*
X45501D01*
X46167Y34001D01*
Y36000D01*
Y34667D02*
X47500Y33334D01*
X43501Y29335D02*
X44168Y30668D01*
X45501Y32001D01*
X46834D01*
X47500Y31335D01*
Y30002D01*
X46834Y29335D01*
X46167D01*
X45501Y30002D01*
Y32001D01*
X41500Y36000D02*
X37501D01*
Y34001D01*
X38168Y33334D01*
X39501D01*
X40167Y34001D01*
Y36000D01*
Y34667D02*
X41500Y33334D01*
X37501Y29335D02*
Y32001D01*
X39501D01*
X38834Y30668D01*
Y30002D01*
X39501Y29335D01*
X40834D01*
X41500Y30002D01*
Y31335D01*
X40834Y32001D01*
X35500Y36000D02*
X31501D01*
Y34001D01*
X32168Y33334D01*
X33501D01*
X34167Y34001D01*
Y36000D01*
Y34667D02*
X35500Y33334D01*
Y30002D02*
X31501D01*
X33501Y32001D01*
Y29335D01*
X29500Y36000D02*
X25501D01*
Y34001D01*
X26168Y33334D01*
X27501D01*
X28167Y34001D01*
Y36000D01*
Y34667D02*
X29500Y33334D01*
X26168Y32001D02*
X25501Y31335D01*
Y30002D01*
X26168Y29335D01*
X26834D01*
X27501Y30002D01*
Y30668D01*
Y30002D01*
X28167Y29335D01*
X28834D01*
X29500Y30002D01*
Y31335D01*
X28834Y32001D01*
X23500Y36000D02*
X19501D01*
Y34001D01*
X20168Y33334D01*
X21501D01*
X22167Y34001D01*
Y36000D01*
Y34667D02*
X23500Y33334D01*
Y29335D02*
Y32001D01*
X20834Y29335D01*
X20168D01*
X19501Y30002D01*
Y31335D01*
X20168Y32001D01*
X49834Y137167D02*
Y139832D01*
X50501Y140499D01*
X51834D01*
X52500Y139832D01*
Y137167D01*
X51834Y136500D01*
X50501D01*
X51167Y137833D02*
X49834Y136500D01*
X50501D02*
X49834Y137167D01*
X48501Y136500D02*
X47168D01*
X47835D01*
Y140499D01*
X48501Y139832D01*
X68168Y33334D02*
X67501Y34001D01*
Y35334D01*
X68168Y36000D01*
X70834D01*
X71500Y35334D01*
Y34001D01*
X70834Y33334D01*
X71500Y29335D02*
Y32001D01*
X68834Y29335D01*
X68168D01*
X67501Y30002D01*
Y31335D01*
X68168Y32001D01*
D12*
X24700Y132960D02*
Y134550D01*
Y53450D02*
X53300D01*
X24700D02*
Y55040D01*
Y134550D02*
X53300D01*
Y132960D02*
Y134550D01*
Y122960D02*
Y125040D01*
Y112960D02*
Y115040D01*
Y102960D02*
Y105040D01*
Y92960D02*
Y95040D01*
Y82960D02*
Y85040D01*
Y72960D02*
Y75040D01*
Y62960D02*
Y65040D01*
Y53450D02*
Y55040D01*
X24700Y62960D02*
Y65040D01*
Y72960D02*
Y75040D01*
Y82960D02*
Y85040D01*
Y92960D02*
Y95040D01*
Y102960D02*
Y105040D01*
Y112960D02*
Y115040D01*
Y122960D02*
Y125040D01*
X23600Y42661D02*
Y43339D01*
X19400Y42661D02*
Y43339D01*
X29600Y42661D02*
Y43339D01*
X25400Y42661D02*
Y43339D01*
X35600Y42661D02*
Y43339D01*
X31400Y42661D02*
Y43339D01*
X41600Y42661D02*
Y43339D01*
X37400Y42661D02*
Y43339D01*
X47600Y42661D02*
Y43339D01*
X43400Y42661D02*
Y43339D01*
X53600Y42661D02*
Y43339D01*
X49400Y42661D02*
Y43339D01*
X59600Y42661D02*
Y43339D01*
X55400Y42661D02*
Y43339D01*
X65600Y42661D02*
Y43339D01*
X61400Y42661D02*
Y43339D01*
D14*
X59350Y137965D02*
X56018Y134633D01*
X59350D02*
X56018Y137965D01*
X59350Y136299D02*
X56018D01*
X57684Y134633D02*
Y137965D01*
D48*
X62000Y50000D02*
Y130000D01*
X72000D01*
Y50000D02*
Y130000D01*
X62000Y50000D02*
X72000D01*
M02*
