M48
;Layer_Color=9474304
;FILE_FORMAT=2:4
INCH,TZ
;TYPE=PLATED
T01F00S00C0.0140
T02F00S00C0.0300
T03F00S00C0.0354
T04F00S00C0.0390
%
T01
X1100Y4300
X1450Y6250
X3000Y8550
Y9500
X1600Y12300
T02
X1100Y5000
Y5500
Y6000
Y6500
Y7000
Y7500
Y8000
Y8500
Y9000
Y9500
Y10000
Y10500
Y11000
Y11500
Y12000
Y12500
Y13000
Y13500
Y14000
Y14500
T03
X6700Y5500
Y6500
Y7500
Y8500
Y9500
Y10500
Y11500
Y12500
T04
X4300Y2400
X3300
X2300
X1300
M30
